<?xml version="1.0" standalone="no"?>
<!DOCTYPE svg PUBLIC "-//W3C//DTD SVG 20010904//EN"
 "http://www.w3.org/TR/2001/REC-SVG-20010904/DTD/svg10.dtd">
<svg version="1.0" xmlns="http://www.w3.org/2000/svg"
 width="300.000000pt" height="298.000000pt" viewBox="0 0 300.000000 298.000000"
 preserveAspectRatio="xMidYMid meet">
<metadata>
Created by potrace 1.10, written by Peter Selinger 2001-2011
</metadata>
<g transform="translate(0.000000,298.000000) scale(0.050000,-0.050000)"
fill="#000000" stroke="none">
<path d="M1100 5921 c0 -21 9 -44 21 -52 15 -9 15 -20 0 -38 -29 -35 -19 -368
11 -393 42 -34 58 94 19 153 -17 27 -25 49 -16 49 9 0 17 34 19 75 2 42 5 84
7 95 13 67 -4 150 -31 150 -16 0 -30 -17 -30 -39z"/>
<path d="M2592 5910 c-7 -28 -5 -67 6 -86 11 -21 11 -73 0 -133 -17 -94 1
-159 35 -125 24 24 19 380 -6 388 -12 4 -28 -15 -35 -44z"/>
<path d="M162 5644 c-1 -15 -9 -22 -19 -16 -9 6 -16 -3 -16 -19 0 -16 7 -29
15 -29 9 0 15 -29 14 -65 -4 -114 8 -149 23 -70 8 41 8 109 0 150 -8 41 -15
63 -17 49z"/>
<path d="M1125 5321 c-3 -57 3 -77 21 -70 29 12 32 133 3 143 -10 3 -21 -30
-24 -73z"/>
<path d="M2450 5363 c-187 -114 -310 -416 -337 -829 l-9 -136 73 6 c62 5 72
13 68 51 -4 40 0 42 35 20 22 -13 40 -29 40 -35 0 -5 79 -10 175 -10 169 1
175 3 170 45 -2 25 4 45 14 45 10 0 22 16 27 35 5 19 5 -3 0 -50 -8 -83 -7
-85 52 -85 56 0 59 3 43 55 -10 30 -23 80 -30 111 -7 31 -20 51 -29 45 -10 -6
-10 23 0 64 113 470 -41 821 -292 668z m185 -159 c60 -52 63 -360 6 -512 -12
-30 -21 -77 -21 -103 0 -41 -10 -49 -62 -49 -34 0 -85 -19 -114 -41 -59 -46
-104 -17 -104 68 0 39 1 39 43 1 43 -38 43 -38 20 6 -34 64 -29 113 8 98 25
-9 29 -2 18 31 -11 36 -7 41 29 32 37 -10 41 -5 31 48 -7 44 -3 56 14 45 17
-10 20 -4 10 21 -8 20 -3 49 11 66 22 26 60 256 40 235 -10 -9 -64 41 -64 60
0 7 18 7 40 0 23 -7 40 -4 40 9 0 29 7 27 55 -15z m-201 -92 c-6 -15 0 -38 13
-52 18 -19 17 -27 -2 -34 -14 -5 -40 -24 -57 -41 -28 -28 -34 -28 -64 2 -30
31 -30 33 2 36 19 1 45 3 59 5 14 1 26 16 27 32 4 63 8 80 20 80 7 0 8 -12 2
-28z m-53 -197 c11 3 19 -4 19 -15 0 -11 -13 -20 -30 -20 -30 0 -38 -20 -31
-85 2 -19 -6 -35 -17 -35 -11 0 -16 -13 -9 -29 6 -17 -2 -43 -18 -59 -19 -18
-26 -51 -20 -86 8 -46 5 -51 -16 -31 -30 28 -35 222 -6 242 33 24 67 121 46
134 -11 6 -14 22 -6 33 8 14 23 8 41 -16 16 -21 37 -36 47 -33z"/>
<path d="M153 5075 c2 -36 6 -168 8 -295 3 -166 8 -208 19 -150 8 44 21 96 29
115 10 23 6 35 -10 35 -18 0 -21 32 -11 130 13 125 1 230 -25 230 -7 0 -11
-29 -10 -65z"/>
<path d="M1105 5040 c-1 -22 8 -40 21 -40 14 0 12 -8 -6 -20 -26 -16 -25 -19
6 -20 48 0 65 52 27 89 -39 40 -44 39 -48 -9z"/>
<path d="M1133 4927 c-19 -20 -16 -131 4 -119 9 6 18 38 19 71 1 64 -1 69 -23
48z"/>
<path d="M4980 4907 c-289 -38 -668 -223 -900 -439 -38 -35 -100 -92 -137
-126 -58 -54 -61 -75 -8 -57 8 3 20 -22 27 -55 13 -58 13 -57 16 16 3 106 162
123 162 17 0 -16 5 -24 12 -18 20 20 -13 95 -43 95 -16 0 -23 12 -17 29 14 35
68 18 68 -21 0 -15 8 -28 17 -28 10 0 17 33 15 73 -1 43 8 77 23 82 15 5 25
-9 25 -33 0 -23 9 -42 20 -42 11 0 20 17 20 39 0 55 33 68 47 18 14 -55 44
-27 143 136 40 64 70 104 67 87 -6 -42 23 -159 39 -157 37 5 64 -5 64 -24 0
-12 -10 -15 -23 -7 -14 8 -18 5 -10 -7 24 -39 -86 -146 -144 -140 -47 4 -52
-1 -47 -50 3 -30 -2 -55 -10 -55 -32 0 -275 -237 -260 -253 9 -8 49 20 90 64
136 144 187 179 208 141 10 -17 29 -32 42 -32 15 0 12 8 -6 20 -29 19 -26 22
25 28 13 1 45 43 70 92 24 50 45 78 45 64 0 -15 9 -21 19 -15 11 7 15 25 9 40
-6 15 -1 78 10 139 13 71 14 131 2 161 -14 38 -12 47 9 39 33 -13 53 -129 28
-160 -11 -14 -6 -32 13 -48 25 -20 30 -19 30 8 0 54 51 -6 56 -66 6 -71 44
-105 44 -38 0 39 13 55 51 64 28 7 45 22 39 33 -11 17 16 28 55 21 8 -1 15 7
15 18 0 11 14 20 32 20 22 0 28 -11 20 -33 -11 -27 -8 -28 17 -8 16 13 38 19
49 12 10 -6 53 7 95 31 l77 42 -60 -53 c-33 -28 -80 -57 -105 -64 -25 -6 -45
-19 -45 -29 0 -10 -13 -18 -30 -18 -16 0 -30 -9 -30 -20 0 -11 8 -20 19 -20
10 0 24 9 31 20 19 31 46 24 56 -15 8 -29 10 -29 12 5 1 29 16 40 52 40 41 0
45 -4 21 -22 -31 -23 -20 -116 12 -96 10 6 14 -12 9 -40 -7 -39 -1 -52 24 -52
29 -1 29 -4 5 -19 -16 -10 -34 -15 -41 -11 -21 13 -19 -78 3 -104 16 -19 15
-26 -2 -26 -13 0 -17 -10 -9 -23 10 -16 22 -12 41 14 15 20 33 29 41 21 18
-17 -72 -91 -111 -92 -16 0 -22 -12 -16 -30 10 -25 5 -27 -28 -10 -27 15 -51
15 -74 1 -30 -17 -27 -20 20 -20 30 -1 55 -10 55 -21 0 -11 16 -21 35 -21 49
-2 -28 -36 -85 -37 -34 -1 -35 2 -10 20 20 14 21 19 4 14 -15 -4 -26 -15 -24
-24 2 -10 -9 -26 -23 -36 -27 -18 -3 -15 104 16 50 14 49 -53 -1 -76 -65 -29
-187 -19 -160 14 40 48 -13 36 -59 -14 -43 -46 -40 -77 4 -40 16 13 37 15 56
4 16 -10 49 -13 74 -7 78 20 49 -26 -32 -50 -96 -29 -122 -29 -83 -1 24 17 21
20 -15 12 -29 -7 -52 2 -64 23 -15 26 -27 28 -55 11 -40 -25 -72 -203 -38
-214 11 -4 0 -26 -24 -50 -38 -38 -41 -50 -19 -84 27 -44 58 -54 50 -15 -3 13
16 27 42 31 29 5 42 17 36 34 -7 17 10 35 43 47 37 14 43 20 18 21 -20 1 -55
-8 -78 -20 -33 -18 -38 -17 -24 5 10 15 18 33 18 40 0 8 8 21 18 30 11 10 13
7 5 -6 -8 -15 12 -26 58 -31 51 -6 68 -1 60 18 -5 14 8 35 30 46 21 12 39 35
39 51 0 37 32 38 47 0 6 -16 -8 -53 -31 -82 l-43 -54 49 15 c38 11 43 9 24
-10 -15 -16 -17 -41 -6 -71 19 -49 -39 -124 -77 -101 -29 18 -83 -8 -83 -40 0
-15 -19 -28 -43 -28 -24 0 -38 -6 -31 -12 7 -7 -4 -28 -25 -45 -44 -40 -80
-180 -59 -234 15 -38 20 -35 26 16 2 14 18 23 36 20 23 -4 30 5 22 33 -9 37
44 83 109 94 65 11 -6 -145 -75 -164 -27 -7 -39 -17 -25 -22 31 -11 33 -79 4
-97 -13 -8 -17 -43 -9 -89 12 -74 -41 -121 -118 -102 -10 2 -26 -8 -35 -22
-13 -21 -29 -18 -82 11 -82 47 -175 76 -175 53 0 -9 11 -21 25 -27 19 -8 19
-10 -1 -11 -39 -3 -7 -42 34 -42 19 0 35 -13 35 -29 0 -35 -68 -4 -106 47 -20
27 -33 28 -92 7 -115 -42 -139 6 -50 103 65 72 37 105 -51 59 -32 -16 -63 -25
-69 -18 -7 6 -1 11 11 11 13 0 18 12 13 26 -6 16 12 37 41 51 29 13 47 31 41
41 -6 10 43 78 109 150 122 135 129 151 121 267 -2 36 4 65 14 65 23 0 26 44
13 155 -16 128 -248 292 -248 175 0 -15 11 -31 25 -36 38 -14 -7 -53 -74 -66
-69 -12 -221 -95 -221 -120 0 -19 213 -52 230 -35 5 6 -6 19 -25 29 -43 24
-46 58 -5 58 17 0 30 -8 30 -18 0 -10 27 -8 61 4 50 19 64 18 79 -6 30 -48
-15 -74 -49 -29 -28 38 -29 38 -18 -5 6 -25 29 -50 51 -57 31 -10 35 -18 16
-36 -19 -17 -27 -17 -34 2 -5 14 -23 25 -40 25 -23 0 -18 -16 22 -69 58 -76
44 -102 -39 -71 -30 12 -71 16 -92 9 -21 -7 -66 5 -103 28 -45 28 -74 35 -95
22 -58 -36 -82 -22 -49 28 38 58 20 113 -37 113 -42 0 -45 8 -53 125 -1 14 8
70 20 125 12 55 16 129 10 164 -7 37 -1 82 14 106 22 36 21 45 -9 62 -21 12
-35 44 -35 79 0 32 -9 59 -20 59 -11 0 -20 -9 -20 -20 0 -11 -10 -20 -21 -20
-42 0 -73 -50 -57 -90 20 -53 22 -91 3 -88 -8 2 -19 1 -25 -2 -40 -17 -116 -8
-139 16 -23 24 -21 27 17 15 39 -13 42 -10 24 22 -11 20 -26 64 -34 97 -14 60
-14 60 -27 10 -9 -37 -17 -43 -29 -23 -13 20 -25 11 -48 -36 -16 -35 -36 -54
-43 -43 -7 12 -23 13 -40 3 -23 -15 -22 -23 6 -51 18 -18 30 -39 25 -47 -5 -8
29 -11 75 -8 l83 6 -60 -28 c-34 -15 -90 -23 -128 -17 -49 7 -64 4 -54 -13 9
-14 2 -23 -17 -23 -17 0 -31 -10 -31 -21 0 -13 18 -16 45 -7 40 12 42 10 17
-19 -19 -24 -20 -33 -3 -33 13 0 37 -13 54 -30 16 -16 24 -30 17 -30 -7 0 4
-27 23 -60 20 -33 44 -60 53 -60 10 0 14 -12 8 -28 -6 -15 -1 -37 12 -50 12
-12 15 -22 6 -22 -9 0 -1 -24 18 -52 19 -29 24 -47 12 -39 -12 7 -22 4 -22 -7
0 -11 10 -26 22 -33 16 -10 16 -18 0 -28 -14 -9 -4 -24 28 -41 29 -15 47 -39
41 -54 -5 -14 0 -26 12 -26 12 0 16 -13 10 -29 -8 -20 -1 -25 21 -17 22 9 28
5 18 -11 -9 -14 -1 -23 22 -23 28 -1 30 -4 9 -18 -23 -14 -21 -22 10 -39 20
-12 27 -22 15 -22 -13 -1 -47 18 -76 41 -30 24 -59 38 -65 32 -5 -6 31 -40 81
-77 50 -37 87 -78 83 -90 -5 -13 4 -28 19 -34 15 -6 38 -30 50 -53 23 -42 22
-42 -34 -9 -44 26 -40 18 21 -38 l77 -71 -57 8 c-31 4 -64 8 -72 9 -8 0 -15
13 -15 29 0 15 -13 38 -29 52 -25 20 -25 15 1 -38 17 -34 42 -63 54 -64 56 -6
64 -9 71 -28 3 -11 13 -29 21 -40 24 -33 14 -100 -14 -95 -20 4 -21 -4 -4 -35
32 -60 53 -49 75 39 14 55 13 85 -3 102 -16 19 -16 21 3 11 18 -10 21 2 12 47
-11 54 -7 60 24 48 21 -8 27 -18 14 -22 -25 -8 1 -89 47 -145 14 -16 25 -39
25 -50 0 -10 10 -22 22 -26 12 -4 16 6 9 24 -30 78 69 17 103 -63 33 -79 28
-102 -11 -55 -27 33 -90 42 -70 10 12 -20 -15 -28 -68 -21 -15 2 -35 -8 -45
-22 -14 -22 -21 -21 -37 3 -16 24 -24 25 -36 5 -12 -19 -36 -2 -83 57 -55 68
-70 77 -84 52 -10 -18 -35 -28 -57 -24 -49 9 -53 -21 -6 -39 29 -11 30 -16 7
-31 -24 -14 -24 -22 0 -52 18 -22 20 -30 4 -21 -26 16 -33 -6 -25 -76 3 -34
-1 -35 -28 -13 -18 15 -32 18 -32 7 0 -12 15 -27 34 -34 20 -7 27 -19 15 -27
-31 -22 -32 -64 -1 -64 28 0 61 -58 43 -76 -6 -5 -22 0 -37 13 -20 16 -34 16
-53 -2 -17 -16 -22 -17 -14 -2 13 23 -44 57 -63 37 -6 -5 0 -10 14 -10 13 0
19 -9 13 -19 -7 -10 6 -29 29 -41 52 -28 31 -66 -27 -50 -43 11 -43 11 2 -22
25 -18 45 -41 45 -51 0 -10 -20 -8 -45 6 -40 21 -42 20 -19 -8 16 -20 19 -36
6 -44 -27 -16 12 -124 49 -139 16 -6 29 -22 29 -35 0 -13 -22 -3 -50 23 -27
26 -50 40 -50 31 0 -9 -13 -5 -30 9 -24 20 -30 20 -30 0 0 -13 -13 -19 -30
-13 -21 8 -30 -1 -30 -28 0 -22 -14 -46 -31 -52 -20 -8 -26 -25 -17 -54 12
-38 10 -39 -19 -16 -29 25 -29 22 -1 -35 17 -33 39 -66 49 -73 29 -18 22 -42
-11 -42 -16 0 -30 6 -30 13 0 19 -72 100 -89 100 -7 0 -8 -9 -1 -20 7 -11 8
-20 2 -20 -6 0 -30 36 -52 80 -23 45 -68 107 -101 138 -41 39 -56 69 -47 94 9
29 7 31 -8 11 -16 -23 -23 -21 -41 10 -21 34 -22 34 -17 -8 4 -25 23 -57 44
-72 25 -19 36 -50 34 -101 -2 -43 5 -69 17 -62 10 7 19 28 19 46 0 23 9 18 27
-17 14 -28 41 -68 60 -90 18 -21 34 -46 34 -54 1 -8 10 -44 20 -80 l18 -65
-40 48 c-30 36 -34 54 -17 74 17 21 15 30 -11 40 -53 21 -56 -3 -12 -90 23
-45 36 -82 29 -82 -7 0 -2 -14 12 -30 21 -25 18 -30 -19 -30 -24 0 -38 -9 -31
-20 24 -39 -18 -19 -77 35 -57 52 -58 53 -26 6 18 -28 33 -56 33 -64 0 -21
-106 2 -130 27 -14 15 -12 17 5 8 29 -16 35 20 6 37 -10 7 -27 -3 -37 -21 -13
-24 -23 -27 -33 -9 -11 17 -23 13 -44 -13 -17 -20 -25 -26 -19 -13 8 15 -19
25 -78 30 -50 4 -90 -1 -90 -10 0 -10 -14 -6 -31 8 -28 23 -30 19 -17 -30 10
-41 7 -53 -9 -43 -13 8 -23 52 -23 97 0 55 -7 76 -20 63 -44 -44 6 -194 65
-197 30 -1 55 4 55 11 0 34 55 30 77 -4 22 -35 19 -38 -26 -26 -35 8 -54 3
-62 -17 -7 -19 -45 -30 -113 -32 -56 -2 -109 -9 -119 -15 -9 -6 -17 0 -17 13
0 13 -14 18 -32 11 -24 -9 -29 -4 -20 19 8 21 3 29 -13 24 -14 -5 -36 6 -49
23 -20 27 -22 25 -13 -13 12 -46 -9 -56 -97 -49 -36 3 -67 -62 -46 -97 9 -14
23 -13 42 3 42 35 122 -13 161 -96 35 -73 104 -82 205 -27 43 23 47 22 35 -8
-7 -18 -4 -28 6 -22 22 14 121 -29 121 -52 0 -9 17 -17 38 -17 44 0 72 -81 36
-104 -16 -11 -17 -21 -3 -31 11 -8 20 -37 19 -65 -1 -67 23 -89 134 -116 114
-29 116 -29 116 -4 0 11 -14 20 -31 20 -18 0 -45 13 -62 30 -26 26 -22 28 32
17 71 -14 82 17 16 49 -44 21 -44 21 10 23 33 0 53 -9 50 -24 -7 -34 82 -43
138 -13 26 13 47 37 47 51 0 15 16 27 35 27 126 1 259 98 190 138 -33 20 -33
21 0 21 19 1 35 9 35 18 0 20 -115 16 -165 -6 -19 -8 -29 -25 -22 -36 9 -14 1
-17 -20 -9 -38 15 -93 -2 -93 -28 0 -9 16 -12 35 -6 19 6 13 -3 -15 -20 -70
-43 -82 -39 -61 16 16 41 12 49 -29 57 -72 14 -102 -14 -52 -49 l42 -29 -48
-26 c-27 -14 -60 -21 -75 -15 -18 7 -14 11 10 12 31 2 34 7 13 32 -14 17 -17
31 -7 32 9 1 -5 8 -32 16 -26 7 -52 25 -57 40 -7 20 0 22 26 7 36 -20 170 8
170 35 0 21 -88 12 -104 -10 -9 -13 -21 -13 -35 1 -14 14 10 30 79 52 55 16
100 24 100 16 0 -8 31 -8 69 1 38 8 75 10 83 3 8 -7 8 -2 0 12 -9 16 -1 25 22
25 30 1 31 4 7 19 -16 10 -57 14 -90 8 -43 -7 -53 -5 -33 9 15 11 21 30 13 43
-11 17 -23 16 -47 -3 -18 -15 -26 -16 -18 -3 8 13 -3 27 -26 33 -27 7 -40 0
-40 -20 0 -25 -16 -29 -75 -20 -41 5 -64 6 -50 0 14 -5 20 -18 14 -28 -6 -10
0 -18 15 -18 14 0 0 -14 -31 -30 -32 -17 -88 -30 -125 -30 -38 0 -68 -9 -68
-20 0 -11 -25 -20 -55 -20 -43 1 -48 5 -25 20 22 14 23 19 4 20 -15 0 -22 8
-16 17 6 9 -25 29 -69 43 -70 23 -112 80 -59 80 36 0 49 4 84 22 25 14 46 3
86 -47 30 -37 44 -46 32 -21 -32 64 -27 90 15 77 24 -8 36 -2 36 19 0 16 -9
30 -20 30 -11 0 -14 6 -7 12 6 7 44 -7 84 -32 40 -25 77 -39 84 -33 6 7 -3 18
-21 25 -18 7 -33 29 -33 48 0 20 -11 41 -25 46 -14 5 -20 14 -14 21 7 7 46 -5
89 -27 50 -26 85 -33 100 -20 15 12 38 8 67 -12 47 -33 115 -23 92 13 -7 12
-1 20 14 17 72 -12 162 62 162 134 0 39 9 48 43 44 23 -3 40 4 38 17 -3 13 18
29 45 36 28 7 46 20 39 30 -6 10 -1 24 10 31 11 7 15 21 9 31 -6 11 -1 19 11
19 13 0 20 10 16 21 -4 12 -13 19 -21 15 -17 -8 -118 128 -105 141 5 5 31 -15
56 -44 55 -65 141 -21 125 64 -6 29 1 43 23 43 26 0 27 5 3 34 -16 20 -17 28
-3 19 30 -18 64 41 51 90 -7 27 1 37 33 37 50 0 51 -7 13 -66 -29 -45 -79
-379 -67 -452 3 -22 -12 -55 -34 -73 -33 -27 -34 -30 -5 -21 47 15 44 -13 -5
-43 -41 -26 -56 -105 -21 -105 11 0 -8 -28 -41 -62 -58 -60 -68 -107 -12 -61
15 12 34 17 41 9 8 -7 -15 -25 -50 -40 -71 -30 -70 -39 8 -53 33 -6 55 -1 55
12 0 12 5 17 10 11 23 -22 -15 -72 -62 -81 -39 -8 -44 -4 -26 18 18 22 13 27
-27 27 -28 0 -62 -14 -76 -32 -16 -18 -46 -28 -73 -22 -27 5 -46 -1 -46 -15 0
-15 22 -21 58 -16 31 5 78 -2 103 -15 37 -20 48 -19 63 8 28 49 80 40 72 -13
-3 -27 -19 -44 -38 -43 -23 2 -30 -9 -23 -35 6 -24 -1 -37 -21 -37 -38 0 -62
-33 -37 -48 10 -6 41 6 69 28 52 42 105 54 84 20 -6 -10 -3 -36 9 -57 16 -31
13 -41 -19 -49 -25 -6 -40 -27 -40 -55 0 -36 5 -40 29 -20 16 14 41 21 54 17
13 -5 -4 -28 -40 -54 -36 -25 -78 -40 -95 -34 -16 6 -49 -6 -73 -28 -23 -22
-54 -40 -69 -40 -45 0 -28 -39 23 -52 73 -18 211 -20 211 -3 0 27 -104 41
-119 16 -11 -18 -19 -15 -29 10 -7 19 -10 36 -7 37 3 2 32 13 65 25 33 12 76
29 95 37 21 8 35 5 35 -7 0 -12 -22 -28 -50 -35 -52 -13 -50 -48 2 -48 17 0
25 9 18 20 -7 12 13 15 54 7 36 -7 74 -13 83 -15 10 -1 23 11 28 26 8 22 -5
26 -57 17 -66 -11 -67 -11 -13 11 30 12 55 33 55 46 0 14 11 29 25 35 16 6 13
10 -7 11 -22 1 -33 20 -33 56 0 30 -9 57 -21 61 -13 5 -15 28 -4 66 10 32 10
59 1 59 -9 0 -21 18 -27 40 -6 25 -2 35 11 27 15 -9 16 -1 6 25 -9 21 -20 61
-25 88 -5 28 -22 78 -38 113 -33 75 -34 87 -8 87 11 0 20 -14 20 -32 0 -17 11
-28 24 -23 29 9 59 111 36 125 -21 13 -15 48 20 110 27 48 30 58 37 116 2 15
12 21 23 14 11 -7 29 11 40 40 25 66 26 63 -11 63 -19 0 -27 -11 -20 -31 8
-22 2 -20 -19 6 -18 24 -24 58 -17 90 17 71 21 76 67 88 40 10 40 10 -1 -48
-23 -32 -32 -58 -20 -58 11 0 21 9 21 20 0 11 9 20 19 20 11 0 15 -13 9 -28
-6 -16 -2 -45 8 -65 22 -41 -13 -153 -46 -147 -10 1 -23 -8 -27 -20 -6 -18 3
-18 31 -3 46 24 78 61 91 103 6 17 5 3 -1 -30 -6 -33 -9 -95 -8 -137 l3 -77
-54 35 c-42 27 -49 29 -30 5 32 -38 12 -97 -27 -83 -15 6 -28 1 -28 -11 0 -12
10 -22 21 -22 12 0 15 -11 7 -23 -10 -16 -4 -20 19 -11 46 18 41 -11 -7 -41
-30 -19 -40 -19 -40 -2 0 46 -25 -2 -32 -62 -7 -57 -5 -59 42 -37 30 13 50 39
50 64 1 32 9 25 35 -28 18 -38 40 -75 49 -81 9 -6 -2 -49 -24 -94 -42 -87 -54
-137 -20 -85 16 24 19 21 20 -15 0 -25 9 -45 20 -45 11 0 20 -20 20 -45 0 -25
9 -58 20 -75 24 -37 4 92 -23 144 -25 50 -21 62 12 30 16 -16 35 -52 42 -81
20 -81 62 -104 77 -43 7 29 22 46 33 40 34 -22 20 66 -23 138 -23 39 -38 95
-35 126 4 36 -2 54 -18 51 -14 -3 -25 8 -25 25 0 16 8 30 19 30 24 0 9 117
-21 152 -19 23 -29 24 -54 3 -24 -19 -22 -12 5 30 35 53 47 173 22 213 -7 12
-4 55 7 97 12 44 13 104 3 145 -9 39 -18 55 -19 37 -1 -17 -15 -43 -32 -57
-36 -30 -41 1 -6 36 16 16 17 24 2 24 -12 0 -26 23 -31 50 -11 56 17 69 32 15
6 -21 9 -16 7 13 -4 50 -74 81 -74 33 0 -13 -21 -49 -47 -79 -42 -49 -46 -50
-43 -14 1 23 8 47 15 54 7 6 8 27 2 45 -8 26 -6 27 9 6 21 -30 55 3 35 35 -6
9 8 40 30 69 27 34 36 67 28 98 -13 55 157 255 217 255 18 0 63 18 99 40 37
23 100 40 148 40 235 0 432 144 527 384 36 91 73 175 82 185 10 10 18 44 18
74 0 30 9 60 20 67 11 7 20 26 20 43 0 30 86 267 119 329 142 263 222 756 171
1051 -29 168 -232 282 -450 254z m-200 -182 c-1 -61 -29 -119 -45 -92 -9 14
-8 72 2 132 7 41 43 8 43 -40z m300 5 c0 -16 -16 -30 -35 -30 -24 -1 -27 -6
-11 -16 30 -19 9 -53 -44 -71 -37 -12 -37 -11 -5 14 49 38 44 49 -20 46 -30
-2 -57 6 -59 17 -2 11 18 18 45 16 27 -2 49 5 49 16 0 11 8 15 19 9 10 -6 24
-3 31 9 18 29 30 25 30 -10z m88 -3 c7 -18 8 -37 2 -43 -5 -6 -10 2 -10 17 0
21 -5 22 -25 2 -20 -20 -19 -28 5 -43 21 -13 37 -10 52 10 28 38 47 19 33 -33
-8 -30 -23 -38 -58 -32 -26 5 -47 1 -47 -9 0 -10 -9 -13 -20 -6 -12 7 -14 23
-6 36 8 13 12 49 9 79 -7 62 44 79 65 22z m-1514 -800 c-7 -7 -2 -31 10 -54
12 -24 25 -62 27 -86 3 -24 11 -62 18 -85 11 -34 5 -42 -30 -42 -33 0 -41 9
-34 37 5 21 0 37 -13 37 -74 -1 -101 7 -74 24 21 14 16 21 -20 33 -46 14 -46
16 -8 31 39 15 39 15 -3 17 -67 2 -78 61 -11 62 30 1 72 10 94 19 50 22 60 23
44 7z m-5 -286 c7 -11 27 -14 45 -7 22 9 28 5 18 -11 -8 -12 -5 -23 7 -23 11
0 21 -10 21 -22 0 -12 18 -45 40 -72 22 -28 49 -86 61 -129 19 -70 25 -75 62
-56 56 30 69 10 30 -49 -29 -45 -29 -50 3 -75 29 -23 31 -23 11 3 -18 24 -10
36 45 62 38 18 68 25 68 16 0 -9 14 -12 30 -5 17 6 42 2 57 -11 15 -12 33 -16
40 -8 7 7 13 2 13 -11 0 -38 0 -39 30 -123 35 -99 35 -102 -5 -145 -22 -24
-24 -35 -6 -35 14 0 -13 -31 -59 -70 -46 -38 -92 -70 -102 -70 -10 0 -25 0
-33 0 -8 0 -16 9 -17 20 -2 11 -5 25 -8 30 -7 14 -14 45 -18 75 -2 15 -15 10
-33 -14 -24 -32 -29 -33 -29 -6 0 18 9 38 20 45 30 18 25 75 -5 58 -14 -8 -2
8 25 35 28 27 61 67 74 88 24 38 25 38 12 -1 -7 -22 -6 -34 1 -28 8 7 18 32
22 55 5 24 15 53 22 65 9 14 -4 12 -34 -3 -43 -23 -45 -23 -20 8 16 18 20 33
10 33 -50 -1 -109 -98 -94 -155 7 -28 -2 -43 -33 -51 -37 -9 -39 -7 -16 21 22
28 21 31 -10 19 -22 -8 -31 -6 -24 6 7 11 3 20 -8 20 -11 0 -15 14 -9 31 8 19
2 29 -16 25 -17 -4 -25 10 -22 38 2 28 -10 48 -33 55 -26 9 -35 25 -28 52 7
25 1 39 -18 39 -16 0 -31 14 -33 30 -1 17 -4 43 -6 59 -2 16 -11 25 -20 19
-16 -9 -25 20 -19 57 1 8 -8 15 -19 15 -12 0 -16 8 -10 19 7 10 -4 28 -24 39
-19 12 -26 21 -15 22 11 0 7 9 -10 20 -24 16 -22 19 14 20 24 0 49 -9 55 -19z
m731 -453 c0 -29 -54 -37 -107 -16 -17 6 -26 22 -21 36 13 34 128 15 128 -20z
m-409 -926 c-8 -23 -33 -52 -57 -65 -24 -12 -37 -15 -29 -7 8 9 -1 28 -20 42
-32 24 -31 25 10 15 52 -13 59 16 13 54 -24 21 -34 21 -46 2 -12 -19 -22 -17
-42 7 -21 26 -21 29 5 19 43 -16 62 50 25 90 -71 80 -22 60 62 -24 71 -71 89
-101 79 -133z m-90 -150 c-16 -43 -101 -71 -101 -33 0 11 14 21 30 21 17 0 30
12 30 27 0 14 13 26 28 26 20 0 24 -12 13 -41z m-181 -82 c11 -28 27 -48 38
-45 10 3 17 -4 15 -15 -9 -57 -83 -17 -83 45 0 78 5 81 30 15z m-260 -408 c0
-9 20 -23 45 -29 35 -9 39 -17 20 -36 -19 -19 -35 -12 -74 30 -34 37 -40 53
-20 53 16 0 29 -8 29 -18z m-55 -183 c34 -63 34 -64 -2 -32 -20 18 -46 33 -58
33 -11 0 -21 33 -21 72 0 79 -3 82 81 -73z m750 -409 c43 -87 79 -220 48 -172
-16 24 -20 24 -28 0 -5 -15 -7 -11 -3 9 7 51 -12 95 -36 80 -13 -7 -15 5 -5
35 14 44 12 45 -21 18 -34 -28 -36 -26 -24 20 7 30 0 66 -17 88 -22 30 -23 45
-4 68 20 24 26 21 37 -19 8 -26 32 -83 53 -127z m-858 -321 c13 -12 -84 -46
-102 -35 -8 4 -15 21 -15 36 0 25 92 24 117 -1z"/>
<path d="M1124 4755 c-13 -15 -19 -49 -14 -75 5 -26 10 -122 12 -214 2 -126 9
-166 30 -166 17 0 28 21 28 50 0 28 -10 50 -21 50 -12 0 -15 11 -6 25 48 78
21 390 -29 330z"/>
<path d="M4470 4530 c-21 -33 -47 -73 -59 -88 -18 -24 -14 -25 24 -5 50 27 91
94 80 129 -5 13 -25 -4 -45 -36z"/>
<path d="M4966 4470 c-40 -77 -49 -150 -19 -150 40 0 30 -67 -12 -84 -37 -15
-49 -76 -15 -76 12 0 12 -18 1 -48 -10 -26 -14 -53 -8 -58 6 -6 1 -27 -11 -47
-15 -27 -21 -29 -21 -8 -1 48 -35 -3 -48 -74 -18 -99 63 -59 95 46 7 23 42 57
77 76 36 19 49 30 30 24 -22 -6 -35 1 -35 20 0 16 14 29 30 29 17 0 30 13 30
30 0 16 22 44 50 62 48 32 51 72 3 66 -57 -7 -113 4 -113 22 0 11 13 20 29 20
16 0 34 9 41 20 7 11 -1 14 -19 8 -23 -9 -28 -4 -19 20 9 23 1 32 -30 32 -44
0 -58 31 -19 44 13 5 19 21 13 37 -7 22 -14 20 -30 -11z"/>
<path d="M2690 4341 c-22 -9 -46 -12 -54 -8 -33 19 -30 -27 4 -48 31 -19 42
-15 69 26 17 27 29 48 26 48 -3 -1 -23 -9 -45 -18z"/>
<path d="M2020 4321 c-82 -12 -175 -48 -200 -79 -5 -7 -53 -34 -107 -62 -53
-27 -100 -56 -105 -64 -15 -24 15 -116 34 -105 10 6 18 -2 18 -19 0 -20 -11
-26 -32 -18 -29 10 -29 6 -8 -36 14 -26 18 -41 10 -33 -9 8 -27 -1 -41 -20
-39 -54 -54 -18 -19 47 37 72 38 88 3 88 -45 0 -60 -144 -19 -175 26 -19 28
-31 11 -48 -18 -18 -32 -16 -58 5 -31 25 -33 24 -21 -9 11 -28 7 -35 -14 -26
-16 6 -40 -2 -53 -18 -28 -33 -119 -39 -119 -8 0 12 9 16 20 9 11 -7 20 -3 20
9 0 37 -34 22 -69 -30 -18 -27 -41 -45 -50 -39 -29 17 -46 -28 -32 -84 10 -39
19 -46 36 -29 33 33 75 28 75 -8 0 -17 -9 -26 -20 -19 -11 7 -20 -4 -20 -25 0
-48 -37 -85 -72 -71 -16 6 -28 0 -28 -12 0 -70 -39 -6 -44 73 -3 52 -15 96
-26 97 -11 1 -35 8 -54 16 -60 27 -98 -11 -69 -68 15 -28 37 -48 50 -45 19 4
19 -4 0 -40 -13 -25 -29 -71 -36 -103 -10 -51 -30 -63 -181 -117 -94 -32 -179
-66 -190 -75 -11 -9 -105 -36 -210 -60 -104 -24 -227 -61 -271 -82 -45 -21
-92 -38 -105 -38 -13 0 -24 -8 -24 -19 0 -22 85 -20 101 2 6 9 69 29 140 45
71 15 190 47 264 69 125 37 187 32 130 -11 -55 -42 -357 -146 -422 -146 -38 0
-74 -11 -79 -25 -7 -20 -15 -20 -35 -1 -17 17 -36 18 -62 4 -44 -23 -51 -88
-8 -71 23 9 24 0 8 -47 -33 -96 -16 -131 38 -81 25 24 45 37 45 29 0 -7 14 -2
30 12 67 56 222 -1 311 -113 31 -39 30 -39 -128 63 -50 33 -77 23 -59 -22 5
-15 2 -28 -8 -28 -10 0 -34 -32 -52 -71 -19 -38 -47 -75 -64 -82 -16 -6 -30
-23 -30 -37 0 -15 -25 -36 -55 -48 l-55 -22 60 13 c33 7 78 12 100 12 22 -1
29 3 15 9 -54 21 -23 49 40 35 77 -16 121 -49 66 -49 -164 0 -254 -69 -232
-177 0 -4 29 17 63 45 84 71 113 65 50 -10 -59 -70 -70 -117 -17 -75 32 25 33
24 6 -10 -67 -85 -28 -204 40 -122 19 23 29 25 40 7 17 -28 2 -82 -19 -69 -7
4 -13 -39 -12 -95 0 -57 -6 -123 -13 -147 -12 -34 -5 -45 32 -52 34 -6 44 -1
37 18 -6 15 -18 22 -28 16 -10 -6 -18 3 -18 21 0 19 9 27 23 18 14 -9 18 -5 9
9 -8 13 -5 23 7 23 11 0 21 -9 21 -19 0 -11 14 -15 30 -8 34 13 32 -20 -9
-128 -28 -73 -61 -86 -61 -24 0 23 -9 36 -20 29 -11 -7 -21 -1 -22 14 0 14
-10 2 -21 -27 -14 -39 -39 -58 -93 -71 l-74 -17 -6 -126 -6 -126 66 36 c36 20
80 47 96 60 63 49 197 70 315 48 154 -29 160 -38 118 -186 -131 -471 -181
-818 -158 -1095 l15 -170 76 -6 c74 -6 75 -5 60 50 -25 90 -18 523 11 686 26
144 72 375 97 480 6 28 28 66 49 86 21 20 33 45 26 55 -6 11 3 25 22 32 73 28
64 -132 -21 -403 -40 -127 -65 -236 -103 -450 -34 -188 -34 -185 -17 -340 21
-193 25 -200 90 -200 61 0 85 47 35 67 -20 8 -20 10 0 11 40 3 33 240 -8 285
-18 21 -25 37 -14 37 10 0 18 18 18 40 0 22 -5 40 -12 40 -26 0 -15 117 11
127 16 6 23 27 16 52 -6 23 -1 41 11 41 12 0 16 15 9 33 -9 23 -5 29 11 19 14
-9 23 -1 23 20 0 95 27 -9 32 -126 4 -75 16 -199 27 -276 10 -77 19 -192 20
-255 1 -112 2 -115 56 -115 73 1 114 29 99 67 -7 18 -4 37 7 44 12 7 12 25 -1
49 -27 50 -25 61 8 48 18 -7 34 7 43 36 8 25 24 52 35 59 11 7 22 39 24 70 2
31 5 75 7 97 2 24 28 51 63 67 33 14 60 37 60 50 0 13 19 35 42 50 23 14 37
31 30 37 -6 7 11 33 38 58 28 25 50 56 50 67 0 12 8 21 17 21 67 0 -82 218
-150 219 -25 1 -47 46 -47 98 0 18 -27 56 -60 83 -33 27 -60 58 -60 67 0 28
-82 93 -116 93 -17 0 -58 21 -92 46 -34 26 -105 67 -158 92 -107 52 -187 144
-216 250 -16 58 -30 72 -69 72 -232 0 -236 465 -7 757 21 26 33 56 27 65 -6
10 2 18 19 18 16 0 46 27 65 60 20 33 43 60 51 60 9 0 16 17 16 39 0 21 9 44
20 51 12 7 16 20 10 29 -5 9 4 22 21 29 18 6 26 21 19 32 -7 11 -2 20 11 20
37 0 139 127 129 160 -5 17 9 53 30 80 36 46 39 47 40 10 0 -33 10 -29 60 30
33 39 60 76 60 83 0 6 20 12 45 12 71 1 100 12 173 64 38 26 62 37 53 23 -12
-20 -7 -21 24 -5 22 12 45 16 52 9 7 -7 13 -3 13 9 0 12 -11 25 -24 30 -15 5
-17 21 -6 46 9 22 15 46 13 54 -6 29 33 14 45 -17 7 -18 25 -27 42 -21 17 7
30 3 30 -8 0 -10 -12 -19 -27 -19 -15 0 -43 -43 -62 -95 -60 -166 -56 -159
-66 -120 -7 30 -12 31 -36 6 -37 -36 -37 -58 -1 -45 39 16 56 -7 29 -39 -17
-21 -14 -27 11 -27 17 0 32 12 32 26 0 51 51 103 54 56 2 -23 -18 -58 -45 -79
-27 -22 -49 -45 -49 -52 0 -19 88 31 106 61 8 15 27 22 42 16 15 -6 32 4 39
21 6 17 5 31 -3 31 -22 0 -14 145 11 190 12 22 27 56 33 76 7 20 21 31 32 24
11 -7 20 3 20 21 0 22 -11 29 -32 21 -17 -7 -35 -12 -40 -12 -4 0 -8 -15 -8
-33 0 -49 -26 -15 -32 42 -3 27 8 59 23 72 23 19 29 18 29 -5 0 -16 14 -29 30
-29 36 0 37 12 2 58 -14 19 -32 29 -39 21 -16 -16 -17 21 -1 62 7 18 21 27 31
20 10 -6 34 0 53 15 31 24 30 22 -1 -15 -40 -47 -47 -115 -10 -103 14 4 28 28
31 52 4 23 16 43 27 43 10 0 14 8 8 18 -6 11 3 33 20 50 22 23 28 52 18 107
l-12 75 31 -56 c16 -30 25 -68 19 -85 -6 -16 -1 -29 11 -29 12 0 22 -20 23
-45 1 -42 3 -41 31 12 17 31 26 62 20 68 -7 6 -12 1 -12 -12 0 -12 -9 -23 -20
-23 -37 0 -21 48 30 89 39 32 45 48 28 71 -18 25 -20 25 -11 -5 15 -47 -58
-88 -75 -43 -7 17 -12 49 -12 70 0 21 -9 38 -20 38 -11 0 -20 -9 -20 -19 0
-11 -13 -15 -30 -8 -19 7 -30 0 -30 -21 0 -34 -83 -34 -93 0 -6 18 127 88 167
88 12 0 27 14 33 30 7 17 27 30 46 30 27 0 30 -5 11 -24 -31 -31 -31 -62 1
-51 14 5 50 2 81 -7 47 -13 55 -10 50 18 -4 19 -17 34 -30 34 -33 0 -76 46
-60 63 8 7 30 -2 50 -20 41 -37 84 -44 84 -13 0 44 4 51 41 64 43 16 54 58 14
53 -14 -1 -65 -8 -115 -16z m-1428 -1466 c16 -30 24 -55 19 -55 -14 0 -111
155 -110 175 0 20 55 -51 91 -120z m-115 -4 c31 -15 69 -44 84 -64 22 -27 10
-24 -51 12 -130 77 -154 115 -33 52z m-3 -1156 c16 -22 18 -35 9 -90 -7 -38
-103 -14 -103 26 0 71 59 111 94 64z m586 -421 c0 -14 -11 -38 -25 -52 -20
-20 -17 -24 15 -19 37 7 40 -5 43 -183 10 -577 1 -730 -43 -730 -25 0 -43 172
-59 550 -7 160 -17 316 -22 348 -10 62 19 112 63 112 16 0 28 -12 28 -26z
m237 -300 c28 -34 -9 -180 -43 -169 -37 12 -44 195 -8 195 16 0 39 -12 51 -26z"/>
<path d="M2811 4282 c-15 -24 41 -44 81 -29 25 10 26 16 5 29 -35 23 -72 22
-86 0z"/>
<path d="M2490 4255 c-79 -29 -141 -87 -69 -65 27 8 76 26 109 40 33 15 74 31
90 37 17 5 8 10 -20 10 -27 0 -77 -10 -110 -22z"/>
<path d="M1144 4205 c5 -68 24 -85 42 -37 6 15 -2 45 -17 65 -26 34 -28 32
-25 -28z"/>
<path d="M2734 4220 c6 -22 -6 -65 -26 -95 -20 -30 -35 -64 -32 -75 2 -11 -9
-3 -26 19 -30 38 -30 38 -30 -2 0 -37 13 -40 155 -40 85 0 139 4 120 8 -20 4
-30 16 -24 27 17 27 -39 22 -67 -6 -19 -19 -24 -18 -24 2 0 17 -15 23 -40 16
-50 -13 -50 2 1 66 22 28 34 35 28 17 -6 -18 -1 -40 13 -48 15 -9 19 -7 11 6
-8 12 4 28 26 35 50 15 31 70 -21 60 -23 -5 -38 3 -38 21 0 16 -8 29 -18 29
-10 0 -14 -18 -8 -40z"/>
<path d="M2970 4224 c-34 -18 -49 -34 -34 -39 51 -17 -17 -66 -73 -52 -43 10
-48 7 -29 -13 13 -15 51 -25 84 -24 49 1 58 -6 51 -39 -5 -30 1 -38 23 -29 17
7 25 3 18 -8 -7 -11 -26 -20 -42 -20 -17 0 -25 -9 -18 -20 7 -11 -4 -20 -24
-20 -30 -1 -31 -4 -6 -20 17 -11 62 -18 100 -17 60 3 62 4 15 11 -57 9 -77 46
-25 46 17 0 30 9 30 20 0 11 29 20 65 20 52 -1 59 -5 35 -22 -24 -17 -21 -20
14 -12 25 6 55 -3 68 -18 12 -15 32 -22 43 -15 11 7 47 12 79 11 69 -2 67 42
-2 53 -38 5 -41 11 -18 38 22 28 21 31 -10 19 -20 -7 -31 -5 -25 5 6 9 0 23
-14 29 -14 6 -5 7 18 1 36 -9 42 -3 33 29 -11 44 -71 76 -82 43 -4 -11 -49
-21 -101 -21 -51 0 -82 7 -70 15 88 56 -4 100 -103 49z m205 -118 c-20 -5 -31
-17 -25 -26 6 -10 2 -23 -10 -30 -11 -7 -20 -2 -20 11 0 16 -21 20 -65 12 -59
-11 -61 -10 -21 12 24 14 74 26 110 27 36 2 50 -1 31 -6z"/>
<path d="M2503 4164 c-18 -15 -20 -20 -5 -12 19 10 23 6 13 -10 -8 -14 -27
-20 -42 -14 -15 6 -33 2 -40 -9 -10 -17 17 -28 56 -21 21 3 19 -6 -12 -65 -15
-29 -32 -48 -37 -42 -6 5 -22 -4 -36 -21 -14 -16 -37 -30 -52 -30 -16 0 -28
-15 -28 -32 0 -27 6 -28 29 -9 16 14 38 19 49 13 10 -7 32 1 48 17 16 16 35
24 42 17 6 -7 12 -2 12 11 0 13 11 21 24 18 13 -3 25 7 25 21 1 14 14 33 29
43 17 10 22 31 14 52 -12 33 -15 33 -42 -3 -25 -33 -29 -34 -29 -5 -1 19 24
52 54 74 54 40 54 41 8 37 -26 -1 -62 -15 -80 -30z"/>
<path d="M4604 4169 c-22 -25 -21 -35 3 -59 36 -36 81 6 61 57 -15 40 -30 41
-64 2z"/>
<path d="M2208 4103 c6 -10 3 -45 -7 -79 -11 -39 -10 -64 2 -68 28 -10 0 -71
-38 -85 -27 -11 -26 -5 4 28 34 37 29 50 -14 43 -8 -1 -14 5 -13 13 14 88 -58
106 -114 29 -13 -18 -36 -25 -57 -17 -23 9 -32 5 -26 -12 5 -14 18 -25 30 -25
12 0 28 -7 37 -15 25 -25 41 -17 40 20 -1 19 6 36 16 38 10 2 25 16 34 30 12
18 17 5 18 -39 0 -45 -7 -62 -23 -52 -16 10 -20 1 -13 -27 12 -45 -27 -50 -68
-9 -32 32 -56 30 -56 -4 0 -15 15 -26 34 -25 40 4 69 -85 40 -122 -11 -14 -15
-31 -9 -36 15 -15 115 34 115 56 0 11 23 13 52 6 29 -7 64 -3 80 10 15 13 41
18 58 12 38 -15 93 5 79 28 -6 10 33 4 85 -12 53 -15 130 -29 171 -29 41 0 75
-10 75 -22 0 -14 -20 -17 -53 -9 -47 12 -51 10 -28 -18 23 -27 17 -31 -42 -33
l-67 -1 58 -18 c32 -9 66 -13 75 -7 9 6 17 0 17 -13 0 -14 -20 -20 -50 -14
-27 5 -50 2 -50 -8 0 -9 25 -18 55 -19 l55 -1 -59 -22 c-43 -15 -61 -15 -67 2
-4 13 -21 23 -38 23 -17 0 -52 24 -76 53 -28 32 -55 46 -70 37 -19 -12 -17
-20 8 -34 18 -10 28 -27 21 -37 -6 -11 5 -20 25 -21 23 -1 26 -5 10 -12 -21
-8 -19 -19 8 -48 19 -21 31 -39 26 -40 -94 -17 -184 7 -103 28 26 7 24 10 -10
12 -25 1 -45 -7 -45 -18 0 -11 -8 -20 -18 -20 -31 0 0 77 35 87 18 6 4 8 -31
6 -39 -3 -82 -24 -114 -59 -56 -60 -102 -69 -119 -24 -7 17 -3 30 8 30 10 0
19 14 19 31 0 47 -59 -16 -62 -65 0 -20 -5 -25 -11 -11 -8 20 -15 20 -34 0
-36 -37 -28 -123 15 -167 21 -21 32 -27 24 -13 -10 17 0 25 27 25 22 0 41 -9
41 -20 0 -11 9 -20 20 -20 11 0 20 14 20 30 0 17 14 30 32 30 25 0 29 -12 19
-55 -13 -55 -13 -55 19 -11 17 25 67 56 111 69 43 13 79 31 79 40 0 9 18 17
40 17 22 0 40 10 40 21 0 12 17 16 38 10 21 -7 44 -3 51 8 8 12 38 22 67 22
53 2 53 2 8 20 -26 10 -41 28 -34 39 16 26 112 25 150 -2 24 -18 22 -19 -10
-9 -31 10 -35 8 -16 -10 12 -13 47 -24 77 -24 33 0 44 -6 29 -15 -34 -21 -7
-60 41 -60 22 0 39 -7 39 -15 0 -17 123 -94 142 -90 7 2 10 -17 7 -41 -4 -40
27 -88 66 -99 8 -3 14 -16 12 -30 -1 -14 9 -25 24 -25 15 0 32 -9 39 -20 7
-12 -2 -14 -24 -7 -26 10 -21 -3 19 -46 30 -33 54 -72 54 -88 -1 -17 -11 -10
-23 16 -12 25 -31 45 -42 45 -12 0 -14 -6 -7 -14 8 -8 -5 -24 -29 -37 -28 -15
-36 -28 -21 -37 13 -8 23 -4 23 8 0 15 11 16 33 3 31 -17 46 -51 52 -118 1
-14 14 -25 30 -25 15 0 22 9 15 20 -7 11 -1 20 14 20 49 -1 79 -35 73 -82 -7
-52 -58 -56 -118 -11 -17 13 -13 4 10 -18 46 -47 61 -89 31 -89 -11 0 -20 9
-20 19 0 11 -15 14 -33 7 -22 -8 -29 -5 -20 9 8 12 4 28 -8 36 -12 7 -19 37
-16 66 7 74 -32 141 -65 109 -20 -20 -18 -27 9 -38 24 -9 28 -20 14 -37 -14
-16 -9 -39 13 -71 18 -26 36 -70 39 -99 5 -47 2 -46 -38 19 -24 39 -60 87 -79
108 -19 21 -29 48 -22 60 8 15 5 15 -9 2 -72 -68 -38 -202 61 -237 20 -7 49
-44 65 -83 16 -38 34 -70 40 -70 6 0 6 8 0 19 -6 10 -3 24 8 30 10 7 14 27 7
45 -9 22 -5 28 11 18 12 -8 23 -26 23 -41 0 -14 16 -38 35 -54 32 -25 33 -24
6 13 -24 32 -20 31 22 -6 45 -40 53 -42 64 -14 7 18 20 28 28 23 14 -8 16 29
7 112 -1 8 -10 13 -20 10 -10 -3 -19 2 -20 10 -6 48 3 50 42 11 57 -57 76 -11
21 50 -47 51 -52 117 -9 109 17 -3 33 5 38 18 4 13 -8 22 -27 20 -19 -2 -45
17 -58 42 -33 66 -56 83 -40 30 16 -53 6 -57 -38 -14 -17 18 -31 22 -31 10 0
-11 -10 -21 -21 -21 -31 0 -14 85 19 96 18 6 22 1 12 -16 -11 -18 -8 -21 9
-11 18 11 10 30 -27 69 -46 48 -47 53 -13 53 21 0 34 -6 29 -15 -12 -19 65
-96 81 -80 7 7 18 -8 24 -32 6 -24 19 -44 28 -44 9 0 32 -5 52 -12 21 -7 29
-5 17 5 -11 9 -20 30 -20 47 0 16 -18 33 -40 37 -59 10 -86 43 -37 43 23 0 75
-31 116 -70 73 -70 116 -95 74 -43 -13 15 -16 33 -8 42 8 8 6 11 -5 8 -23 -7
-110 63 -110 89 0 9 9 11 20 4 31 -19 24 5 -14 50 -19 22 -47 40 -62 40 -14 0
-21 9 -14 20 7 11 -6 20 -29 20 -63 0 -32 -61 39 -76 62 -14 58 -38 -9 -59
-42 -12 -76 -14 -82 -3 -6 10 -1 18 11 18 12 0 16 10 9 21 -7 12 -23 18 -36
13 -13 -4 -45 14 -73 42 -27 27 -37 42 -22 33 21 -11 25 -7 16 18 -7 18 -4 33
7 33 10 0 19 -8 19 -18 0 -21 76 -5 91 20 14 22 -28 86 -77 117 -37 23 -37 21
4 -36 26 -37 35 -65 22 -73 -26 -16 -64 7 -50 30 12 19 -121 161 -146 157 -57
-8 -93 6 -54 22 22 9 49 8 59 -1 42 -39 68 -20 44 32 -13 27 -30 50 -39 50 -9
0 -10 -10 -2 -23 8 -13 3 -19 -12 -14 -74 25 -33 113 46 99 10 -2 12 5 5 16
-6 10 -30 13 -53 7 -29 -7 -58 8 -98 52 -32 35 -51 63 -42 63 8 0 15 12 15 26
0 27 -166 33 -207 7 -12 -7 -27 1 -33 17 -7 17 -29 30 -51 30 -64 0 -69 39
-13 91 61 56 61 56 111 29 27 -14 42 -13 52 5 8 14 8 19 -1 11 -8 -7 -27 -3
-41 10 -21 19 -18 29 17 48 41 23 39 25 -22 25 -36 1 -65 -6 -65 -15 0 -9 -14
-34 -30 -55 -29 -37 -30 -37 -19 14 11 46 6 52 -39 52 -60 0 -63 -7 -21 -49
17 -17 26 -36 20 -42 -6 -6 -25 6 -41 27 -25 33 -32 35 -49 10 -22 -34 7 -60
65 -61 20 0 31 -9 24 -20 -8 -13 -26 -13 -52 1 -30 16 -48 15 -71 -3 -25 -22
-28 -17 -16 31 14 53 13 54 -33 30 -61 -31 -79 -49 -33 -33 21 8 35 3 35 -12
0 -14 -22 -27 -49 -29 -38 -3 -47 3 -37 27 10 28 6 28 -30 6 -23 -14 -37 -34
-31 -43 6 -10 -7 -6 -30 8 -23 14 -37 29 -32 34 5 5 -1 21 -13 35 -15 18 -11
40 13 77 38 58 19 70 -25 16 -31 -37 -30 -23 5 62 6 15 -3 33 -21 40 -18 7
-27 5 -22 -4z m692 -399 c0 -9 18 -36 41 -60 26 -29 31 -44 15 -45 -14 0 -3
-13 24 -29 28 -16 42 -29 31 -29 -10 -1 -1 -14 20 -30 52 -40 26 -39 -59 2
-38 18 -65 43 -60 56 6 14 -13 22 -46 22 -42 -1 -55 8 -53 35 2 23 -7 33 -24
27 -14 -6 -35 0 -47 14 -15 19 -4 26 43 29 35 3 67 9 72 15 15 15 43 10 43 -7z"/>
<path d="M4484 4088 c-24 -16 -44 -22 -44 -11 0 11 -21 10 -50 -4 -65 -30 -65
-86 0 -98 39 -7 46 -4 29 16 -16 20 -12 23 18 15 26 -6 37 -23 33 -48 -4 -21
1 -38 12 -38 11 0 17 -11 15 -25 -6 -29 59 -170 85 -187 45 -27 56 19 14 55
-25 22 -46 48 -46 57 0 9 -7 23 -15 31 -8 8 0 26 18 38 29 22 28 27 -2 57 -19
19 -26 34 -17 35 9 0 -6 14 -34 31 -27 17 -35 26 -16 20 22 -6 38 4 47 31 17
55 5 62 -47 25z"/>
<path d="M2307 4018 c2 -51 5 -53 35 -22 36 38 31 77 -10 77 -17 0 -26 -21
-25 -55z"/>
<path d="M921 3968 c-59 -16 -118 -37 -130 -47 -12 -10 -82 -32 -157 -49 -74
-18 -160 -49 -190 -70 -31 -21 -123 -48 -214 -61 -213 -31 -230 -37 -230 -82
0 -50 84 -52 193 -5 93 40 97 41 197 55 78 11 72 5 -30 -33 -49 -19 -49 -19
-10 -49 40 -30 40 -30 -2 -24 -23 4 -57 -5 -75 -20 -18 -16 -33 -21 -33 -12 0
26 -127 -129 -176 -215 -55 -96 -52 -102 37 -74 38 12 96 25 129 29 33 5 80
13 105 19 49 12 59 -8 21 -46 -40 -40 26 -29 235 37 105 34 220 59 254 55 91
-9 87 27 -14 119 -93 85 -131 79 -131 -21 0 -56 -264 -158 -320 -124 -28 17
103 231 204 334 l94 96 -84 1 c-77 1 -80 3 -34 22 101 42 324 31 437 -22 76
-35 110 -42 126 -26 28 28 -82 99 -183 118 -141 25 -133 49 14 41 90 -5 164
-21 197 -43 48 -31 56 -31 101 -2 73 49 33 74 -192 122 -16 3 -79 -7 -139 -23z"/>
<path d="M4249 3951 c-22 -17 -59 -30 -83 -30 -65 -1 -103 -79 -55 -114 23
-17 27 -27 11 -27 -15 0 -21 -13 -15 -29 6 -15 0 -33 -13 -38 -13 -5 -3 -11
22 -11 26 -1 42 6 36 15 -19 30 121 163 186 176 71 14 75 22 27 59 -46 35 -69
34 -116 -1z"/>
<path d="M3170 3920 c7 -12 -19 -21 -64 -23 -69 -3 -67 -4 24 -15 118 -15 124
-13 90 28 -27 33 -70 42 -50 10z"/>
<path d="M2920 3851 c0 -19 -13 -26 -35 -19 -19 6 -12 -3 15 -20 28 -17 66
-26 85 -20 19 6 35 1 35 -12 0 -12 10 -16 21 -9 14 8 8 23 -15 39 -19 15 -44
21 -54 15 -10 -6 -13 3 -6 22 8 21 3 33 -17 33 -16 0 -29 -13 -29 -29z"/>
<path d="M2700 3840 c0 -25 86 -60 146 -60 31 1 18 13 -43 40 -101 46 -103 47
-103 20z"/>
<path d="M3047 3846 c7 -7 33 -14 58 -16 30 -2 45 -16 45 -42 0 -47 50 -110
75 -95 11 7 9 21 -3 33 -12 12 -22 38 -22 57 0 19 -9 40 -21 47 -28 18 -148
32 -132 16z"/>
<path d="M1960 3789 c10 -86 0 -128 -27 -117 -15 6 -34 -5 -41 -24 -11 -30 -9
-30 21 -6 30 25 33 24 21 -7 -14 -38 21 -135 49 -135 9 0 17 14 17 31 0 17 -9
26 -20 19 -12 -7 -20 13 -20 49 0 69 31 82 50 20 14 -44 69 -2 69 51 0 11 -13
4 -28 -16 -33 -44 -63 16 -42 83 7 22 -1 48 -20 64 -29 24 -32 22 -29 -12z"/>
<path d="M1812 3645 c-30 -30 -71 -150 -59 -170 8 -13 3 -15 -13 -5 -20 12
-23 7 -14 -18 8 -20 6 -29 -6 -22 -11 7 -20 -3 -20 -21 0 -28 -5 -29 -30 -9
-38 32 -28 -92 13 -157 20 -32 19 -46 -2 -71 -18 -23 -19 -32 -3 -32 17 0 16
-8 -2 -28 -14 -15 -32 -24 -40 -20 -7 5 -20 -2 -28 -15 -10 -16 2 -20 37 -13
36 7 48 2 42 -16 -6 -14 -25 -20 -44 -13 -30 12 -30 8 2 -40 19 -30 35 -71 35
-93 0 -21 10 -42 23 -46 13 -5 19 -19 15 -32 -6 -18 -22 -16 -62 4 -29 16 -59
22 -66 15 -7 -7 -10 1 -7 17 5 19 -6 28 -27 24 -19 -3 -44 13 -56 35 -12 23
-34 41 -50 41 -16 0 -56 27 -90 60 -34 33 -82 60 -107 60 -25 0 -55 10 -67 22
-17 17 -43 13 -98 -15 -90 -44 -112 -87 -45 -87 102 -1 227 -54 268 -113 22
-33 51 -56 65 -52 14 5 24 -9 24 -33 0 -44 -66 -60 -90 -22 -7 11 -28 19 -46
19 -28 -2 -27 -5 5 -17 39 -15 39 -16 0 -38 -21 -13 -27 -23 -13 -23 15 -1 21
-10 14 -21 -7 -11 6 -20 29 -20 24 0 41 13 41 32 0 21 11 28 32 20 17 -7 40
-12 50 -12 10 0 18 -7 18 -15 -1 -26 -148 -85 -190 -76 -22 4 -51 9 -65 9 -32
2 -33 76 -1 87 67 22 31 117 -42 111 -71 -6 -72 -7 -78 -107 -8 -141 33 -179
164 -150 130 30 250 8 272 -49 14 -37 50 -66 100 -79 66 -18 97 -43 136 -111
l45 -80 -44 0 c-24 0 -37 -7 -29 -15 8 -8 30 -15 48 -15 20 0 33 -15 31 -34
-1 -19 7 -33 19 -30 34 7 77 -92 48 -110 -18 -12 -17 -15 2 -16 46 0 75 -48
74 -120 -2 -68 43 -296 48 -244 1 15 11 21 22 14 31 -19 24 -50 -12 -50 -27 0
-28 -5 -8 -30 29 -35 69 -41 48 -7 -10 17 -3 19 24 9 29 -11 32 -9 15 9 -15
15 -17 43 -6 81 9 34 8 62 -3 69 -10 7 -14 20 -8 29 6 10 -10 37 -35 62 -25
24 -31 37 -15 29 17 -8 10 3 -14 25 -29 26 -37 45 -24 58 14 14 7 45 -21 93
-22 40 -41 80 -41 88 0 8 -12 29 -27 47 -22 26 -73 145 -73 172 0 5 11 2 25
-7 19 -11 19 -7 -1 17 -26 32 -47 260 -23 245 7 -4 9 14 4 42 -5 27 -18 49
-27 49 -10 0 -18 8 -18 19 0 10 17 17 38 16 21 -2 34 -14 29 -27 -5 -12 5 -28
23 -35 18 -7 28 -20 22 -30 -6 -9 6 -35 26 -56 20 -22 43 -84 51 -138 8 -54
26 -126 40 -159 83 -191 185 -548 190 -659 3 -88 40 -179 71 -173 11 2 17 28
14 58 -4 42 -1 47 15 24 18 -27 20 -27 19 0 -1 48 -28 103 -48 101 -10 -2 -29
40 -42 93 -21 83 -20 90 4 57 15 -21 28 -47 28 -58 0 -11 5 -15 11 -8 13 12
-41 149 -75 190 -13 16 -26 43 -28 62 -3 18 -11 69 -18 113 -8 44 -14 96 -13
115 0 20 -7 31 -17 25 -10 -6 -29 27 -42 74 -14 47 -37 100 -51 118 -30 35
-36 66 -10 50 9 -6 16 3 16 19 0 16 -8 29 -18 29 -11 0 -14 14 -7 31 7 18 3
26 -8 19 -19 -11 -54 99 -44 135 2 8 -6 15 -18 15 -13 0 -18 18 -12 41 7 26
-10 73 -48 128 -86 129 -48 189 57 91 46 -42 76 -53 55 -20 -7 11 -4 20 7 20
10 0 24 -13 30 -30 7 -17 1 -30 -14 -30 -15 0 -26 -13 -26 -30 0 -24 5 -25 30
-5 24 20 28 20 16 0 -9 -14 -6 -25 6 -25 11 0 21 -10 21 -21 0 -12 -10 -15
-22 -8 -12 7 -8 -12 8 -44 31 -62 58 -154 64 -217 2 -22 14 -60 27 -84 30 -57
29 -62 -11 -59 -21 2 -36 -13 -39 -37 -3 -26 -1 -29 5 -7 35 114 102 -12 237
-443 66 -209 191 -383 191 -267 0 31 3 31 27 -3 42 -56 19 -112 -39 -98 -28 7
-48 4 -48 -9 0 -12 -13 -17 -30 -10 -17 6 -30 1 -30 -12 0 -13 -8 -18 -19 -12
-30 19 -44 -25 -21 -68 11 -22 40 -50 63 -63 30 -16 38 -16 28 0 -7 12 3 28
22 36 20 8 54 33 77 57 22 24 48 43 58 42 10 -2 27 12 38 29 22 35 -109 191
-143 170 -9 -6 -17 1 -18 14 -9 97 -23 143 -47 150 -18 4 -20 1 -7 -9 13 -10
16 -38 7 -67 -15 -55 -20 -45 -26 60 -2 39 -15 91 -30 117 -14 25 -20 52 -14
58 7 6 12 1 12 -12 0 -13 35 -62 77 -108 51 -56 75 -100 71 -128 -4 -25 5 -48
22 -54 17 -7 30 -3 30 8 0 10 -7 19 -17 19 -9 0 -15 29 -15 65 2 45 -7 65 -28
66 -16 0 -28 12 -25 25 3 13 -3 24 -12 24 -16 0 -63 87 -63 116 0 8 41 -31 90
-85 72 -81 94 -95 115 -74 20 21 19 23 -8 13 -18 -7 -39 -2 -47 10 -10 16 4
22 43 20 70 -5 147 18 147 44 0 10 10 12 21 5 12 -7 33 2 46 20 24 33 103 24
83 -9 -5 -9 5 -21 22 -28 25 -10 27 -19 9 -40 -14 -18 -16 -33 -3 -41 27 -17
52 30 45 86 -4 30 1 43 15 34 26 -16 28 8 4 47 -10 15 -28 21 -40 13 -12 -7
-49 3 -82 22 -59 35 -78 67 -40 67 11 0 20 -9 20 -19 0 -31 70 -60 117 -48 23
6 38 20 32 29 -14 22 16 24 42 3 11 -8 3 1 -18 20 -20 19 -27 35 -15 35 12 0
22 13 22 29 0 16 10 35 23 43 15 9 18 5 7 -12 -11 -18 -8 -21 8 -11 18 11 18
21 1 43 -18 21 -18 35 1 58 20 24 20 30 -3 30 -21 1 -21 5 3 20 23 15 13 20
-40 22 -53 3 -58 6 -22 13 39 7 43 13 20 28 -20 15 -11 17 32 9 33 -6 49 -6
35 0 -14 6 -25 23 -25 38 0 36 -59 93 -81 79 -10 -6 -13 3 -7 20 7 17 21 31
31 31 11 0 13 10 6 21 -7 12 -17 50 -23 85 -5 35 -18 74 -27 85 -11 13 -10 30
3 43 27 27 3 119 -31 119 -36 0 -57 -111 -29 -146 17 -20 16 -27 -5 -27 -21
-1 -21 -5 3 -21 26 -17 25 -24 -10 -51 -39 -31 -39 -32 10 -19 38 10 43 9 20
-7 -16 -12 -54 -22 -83 -22 -56 0 -95 -57 -55 -81 16 -10 15 -17 -5 -25 -18
-7 -14 -11 10 -12 29 -2 33 -8 16 -29 -17 -19 -16 -27 2 -28 14 -1 48 -8 75
-15 41 -10 39 -7 -10 17 -51 24 -55 30 -25 43 19 8 35 27 35 42 0 15 -16 29
-35 30 -20 0 -25 5 -11 11 29 12 120 -47 106 -68 -5 -8 10 -18 35 -21 25 -4
45 -16 45 -28 0 -11 -13 -15 -30 -9 -18 7 -30 0 -30 -17 0 -36 -105 -66 -116
-33 -10 31 -44 9 -44 -28 0 -17 20 -29 49 -29 63 0 88 -39 27 -42 -34 -2 -37
-5 -11 -12 54 -14 41 -41 -24 -50 -35 -5 -54 -1 -47 11 7 11 -5 15 -30 8 -24
-6 -52 1 -66 17 -33 40 -58 35 -58 -12 0 -32 13 -40 64 -40 48 0 58 -6 41 -23
-29 -29 -127 9 -179 69 -28 34 -29 38 -3 18 20 -15 38 -18 45 -7 6 10 -6 23
-28 29 -22 6 -45 2 -51 -8 -7 -10 -21 -13 -32 -6 -13 8 -13 -2 1 -28 16 -31
16 -45 -1 -56 -13 -8 -18 -5 -11 6 16 25 -80 111 -112 101 -13 -5 0 -31 32
-62 30 -30 54 -62 54 -71 0 -10 13 -28 30 -42 16 -13 24 -34 17 -45 -8 -13 -3
-15 10 -7 13 8 22 38 19 66 -7 63 42 87 58 28 6 -24 20 -36 33 -28 13 8 10 -2
-6 -22 -27 -33 -24 -34 44 -22 66 13 73 10 70 -29 -3 -38 -12 -41 -89 -29 -58
8 -86 5 -86 -10 0 -42 -42 -22 -76 38 -19 33 -41 60 -49 60 -20 0 45 -102 85
-134 38 -31 67 -33 48 -3 -10 17 4 20 51 10 36 -7 74 -13 84 -13 9 0 17 -10
17 -22 0 -15 -22 -19 -60 -11 -46 9 -60 5 -60 -20 0 -20 11 -27 30 -20 17 7
30 3 30 -8 0 -34 -44 -21 -118 35 -43 33 -60 39 -42 17 27 -33 27 -36 0 -28
-42 14 -138 208 -119 239 17 27 -49 138 -81 138 -9 0 -21 -16 -26 -35 -5 -20
-10 -9 -12 25 -2 45 -7 53 -21 31 -16 -25 -21 -23 -33 10 -8 21 -19 48 -25 59
-6 11 3 9 19 -4 24 -19 29 -17 29 16 0 22 -10 35 -23 30 -20 -8 -44 52 -56
134 -1 8 -14 23 -30 32 -15 10 -21 27 -14 38 15 24 -21 128 -51 146 -12 8 -15
32 -7 59 13 40 17 41 33 13 11 -19 40 -32 66 -29 27 2 45 9 41 15 -4 7 15 39
42 71 l49 59 -10 -70 c-25 -176 -29 -166 93 -227 140 -70 277 -78 330 -20 20
21 27 25 16 8 -17 -27 -15 -27 14 -5 18 15 29 39 23 53 -5 15 0 33 12 40 11 7
21 4 21 -7 0 -11 14 -16 30 -9 48 18 37 38 -90 174 -214 228 -341 252 -492 93
-99 -105 -133 -118 -178 -73 -24 24 -22 34 11 70 50 53 49 59 -16 115 -30 26
-55 63 -55 82 0 20 -17 39 -37 43 -39 7 -29 -79 11 -94 26 -10 96 -88 96 -107
0 -31 -40 -16 -65 24 -29 47 -55 52 -55 10 0 -16 8 -30 18 -30 10 0 9 -30 -3
-68 -16 -54 -28 -65 -53 -52 -18 9 -49 22 -69 29 -32 10 -34 16 -10 45 25 30
23 30 -25 -1 -50 -32 -52 -32 -74 17 -13 29 -15 50 -4 50 10 0 14 14 7 30 -6
17 -1 30 11 30 12 0 22 10 22 22 0 15 -12 13 -34 -5 -30 -24 -32 -23 -17 13 8
22 20 54 25 71 5 17 33 40 63 52 35 13 55 36 57 67 2 25 15 56 28 68 17 16 20
16 11 -1 -7 -13 -2 -27 12 -32 20 -7 19 -15 -2 -41 -14 -18 -21 -42 -14 -53 8
-12 4 -21 -8 -21 -11 0 -21 -13 -21 -30 0 -43 35 -37 50 9 8 25 23 35 43 27
34 -13 22 63 -15 103 -10 10 -18 35 -18 55 0 20 -13 36 -30 36 -17 0 -30 18
-30 40 0 41 -21 52 -48 25z m668 -565 c20 -13 22 -19 5 -20 -14 0 -25 -12 -25
-28 0 -15 -18 -32 -40 -38 -50 -13 -51 -35 -2 -88 42 -44 142 -42 142 3 0 63
56 103 93 66 22 -21 26 -35 11 -35 -13 0 -24 -17 -24 -38 0 -155 -278 -110
-314 51 -28 121 56 190 154 127z m-585 -272 c-26 -25 -75 11 -75 56 l0 45 44
-44 c24 -24 38 -50 31 -57z m-287 -5 c6 -10 41 -24 77 -32 36 -8 54 -19 40
-25 -30 -11 -33 -79 -4 -97 15 -9 15 -20 0 -38 -11 -13 -15 -30 -8 -37 7 -7 1
-27 -13 -44 -22 -26 -20 -29 10 -17 25 9 32 6 22 -10 -30 -49 -127 -3 -174 82
-15 28 -12 32 16 21 31 -12 31 -10 5 18 -16 18 -36 28 -44 23 -15 -10 -16 -7
-25 63 -3 22 -7 49 -10 60 -3 11 -4 27 -2 35 3 21 97 19 110 -2z m1260 -524
c30 12 74 20 98 19 25 -1 9 -10 -35 -21 -44 -10 -84 -25 -90 -33 -6 -9 -38
-10 -71 -2 -33 7 -44 14 -25 16 19 1 35 13 35 27 1 19 4 19 17 -1 12 -19 30
-20 71 -5z"/>
<path d="M3198 3632 c30 -17 39 -31 25 -38 -16 -7 -16 -9 2 -5 14 3 41 -3 60
-12 19 -10 35 -13 35 -7 0 15 -126 90 -150 89 -11 0 2 -12 28 -27z"/>
<path d="M1625 3496 c-27 -70 -25 -81 9 -60 29 18 57 124 33 124 -10 0 -29
-29 -42 -64z"/>
<path d="M3180 3538 c-25 -18 -25 -20 5 -11 32 11 46 -24 38 -90 -1 -7 39 -38
89 -69 49 -32 80 -61 68 -65 -28 -9 14 -63 51 -63 48 0 -15 92 -96 138 -42 24
-71 53 -64 64 8 13 23 12 41 -3 52 -44 29 13 -28 67 -64 61 -63 61 -104 32z"/>
<path d="M1279 3312 c16 -20 16 -33 2 -41 -12 -8 -27 2 -34 21 -12 31 -16 31
-37 2 -13 -18 -50 -43 -82 -57 -54 -22 -55 -25 -14 -32 24 -4 65 4 90 18 60
33 96 38 96 14 0 -11 8 -15 17 -9 28 18 1 112 -32 112 -23 0 -25 -6 -6 -28z"/>
<path d="M2795 3304 c-32 -6 -32 -10 -4 -38 44 -44 20 -56 -34 -18 -60 42 -67
41 -67 -14 0 -40 9 -45 81 -42 77 3 81 1 77 -55 -2 -31 4 -62 14 -68 10 -7 14
-20 7 -30 -6 -10 2 -13 19 -7 23 9 25 23 11 60 -18 49 -18 49 43 17 45 -23 55
-38 40 -56 -14 -18 -4 -50 39 -114 34 -51 59 -75 59 -55 0 18 -9 39 -20 46
-12 7 -15 21 -9 32 15 24 -52 177 -80 180 -11 2 -28 2 -36 0 -8 -1 -15 12 -15
28 0 17 -8 30 -18 30 -9 0 -29 25 -45 56 -17 35 -40 53 -62 48z"/>
<path d="M3100 3126 c0 -13 9 -29 20 -36 12 -7 16 -20 11 -28 -5 -9 3 -33 19
-54 29 -37 29 -37 24 2 -6 45 -74 152 -74 116z"/>
<path d="M4459 3094 c-31 -24 -119 -158 -119 -181 0 -40 85 -2 142 62 51 59
63 65 53 30 -6 -25 -4 -45 5 -45 8 0 20 -18 26 -40 13 -52 47 -51 75 1 29 56
-16 165 -65 152 -22 -6 -29 1 -22 19 13 35 -52 37 -95 2z"/>
<path d="M936 2929 c-6 -5 -31 -14 -57 -19 -66 -13 -75 -40 -49 -145 30 -116
59 -128 90 -36 25 77 73 100 53 26 -7 -25 -13 -61 -13 -80 0 -20 -23 -45 -52
-56 -28 -11 -57 -37 -62 -59 -6 -22 -19 -40 -28 -40 -23 0 -23 25 1 88 11 28
12 55 3 61 -21 13 -107 -78 -90 -95 7 -6 -2 -27 -20 -44 -41 -42 -41 -78 0
-62 22 8 29 4 22 -15 -7 -19 3 -24 39 -17 38 7 52 -1 61 -36 10 -39 21 -43 88
-32 45 7 81 3 89 -9 7 -12 26 -17 41 -11 17 6 28 -2 28 -21 0 -20 11 -27 30
-20 20 8 30 0 30 -23 0 -40 72 -92 89 -65 7 10 -4 30 -24 45 -20 14 -35 46
-33 69 1 29 -12 48 -40 55 -24 7 -34 18 -22 27 11 8 32 30 46 48 38 49 -6 66
-50 19 -20 -21 -73 -51 -118 -67 l-82 -28 22 71 c13 45 24 58 28 37 8 -42 24
-44 74 -8 36 27 36 28 -4 50 -22 12 -46 16 -53 9 -19 -19 -16 11 16 144 23 93
24 124 5 140 -13 11 -21 40 -18 65 6 42 -15 60 -40 34z m-30 -469 c-16 -61
-38 -64 -63 -9 -20 45 -18 49 26 49 38 0 45 -8 37 -40z"/>
<path d="M3574 2781 c46 -83 86 -101 86 -39 0 24 -6 39 -14 31 -7 -7 -35 7
-62 32 l-48 45 38 -69z"/>
<path d="M2220 2753 c0 -15 101 -173 111 -173 3 0 4 13 1 29 -4 30 -112 169
-112 144z"/>
<path d="M2565 2659 c-25 -10 -45 -23 -45 -30 0 -8 12 -9 26 -3 15 5 38 -8 52
-30 14 -23 16 -34 3 -27 -11 7 -21 5 -21 -6 0 -10 15 -25 34 -32 19 -7 28 -7
20 1 -18 18 45 91 67 77 9 -5 15 8 14 29 -3 30 -11 35 -36 21 -18 -9 -41 -9
-51 0 -10 9 -38 9 -63 0z"/>
<path d="M1300 2459 c0 -22 29 -72 65 -112 36 -39 62 -85 59 -101 -4 -17 2
-24 15 -17 11 7 21 -1 21 -18 0 -18 14 -37 30 -44 17 -6 30 -25 30 -41 0 -18
12 -26 29 -19 17 6 43 -2 60 -19 16 -16 34 -29 40 -29 50 4 72 -1 64 -14 -5
-9 13 -26 40 -39 42 -20 49 -19 39 5 -6 16 -2 29 9 29 12 0 9 13 -5 28 -14 15
-33 23 -42 18 -9 -6 -27 4 -40 21 -13 17 -37 34 -53 37 -16 3 -47 22 -69 41
-22 19 -51 35 -66 35 -14 0 -26 22 -26 50 0 28 -9 50 -20 50 -12 0 -31 23 -44
50 -12 28 -33 50 -47 50 -13 0 -29 18 -35 40 -13 52 -54 52 -54 -1z"/>
<path d="M4769 2398 c-18 -100 -18 -416 -1 -433 29 -29 42 33 49 234 8 239
-20 356 -48 199z"/>
<path d="M595 2432 c-28 -21 -31 -37 -17 -74 14 -35 20 -39 21 -13 0 19 11 35
22 35 44 0 81 55 47 68 -38 15 -31 16 -73 -16z"/>
<path d="M3441 2361 c-24 -15 -18 -23 27 -40 67 -26 88 -14 52 29 -29 35 -39
36 -79 11z"/>
<path d="M655 2298 c19 -25 18 -39 -6 -70 -29 -37 -30 -36 -25 10 8 67 -36 76
-52 11 -11 -44 -19 -48 -43 -28 -25 20 -28 19 -17 -8 7 -18 3 -33 -8 -33 -46
0 -31 -192 22 -275 20 -30 74 -33 74 -4 0 12 -9 16 -20 9 -11 -7 -20 -3 -20 8
0 11 9 25 20 32 12 7 17 19 13 26 -21 38 64 135 135 153 85 21 254 -44 180
-70 -24 -8 -28 -17 -13 -26 13 -8 18 -27 13 -42 -7 -16 6 -33 31 -41 39 -12
59 -50 26 -50 -36 0 -59 -140 -32 -192 15 -29 27 -62 27 -73 0 -36 88 -98 124
-88 20 5 36 -1 36 -14 0 -13 18 -40 40 -58 22 -19 40 -26 40 -15 0 11 18 4 40
-15 22 -18 40 -42 40 -51 0 -10 18 -41 40 -69 22 -28 40 -40 40 -28 0 13 10
23 21 23 12 0 16 -8 10 -19 -7 -10 14 -18 46 -17 31 1 68 -4 80 -12 13 -8 23
-5 23 7 0 11 -9 21 -20 21 -11 0 -20 9 -20 20 0 37 41 20 57 -23 11 -29 21
-36 31 -20 20 32 72 29 72 -6 0 -59 102 -116 143 -79 34 31 37 31 50 -2 7 -19
73 -62 145 -95 73 -33 138 -69 145 -80 27 -42 53 4 30 53 -12 27 -28 45 -35
41 -8 -5 -26 7 -41 25 -24 29 -23 32 8 20 41 -15 41 -13 16 54 -16 41 -14 48
10 39 16 -6 30 -31 31 -54 1 -29 8 -21 21 26 15 52 24 62 38 40 15 -24 18 -23
19 6 0 19 7 35 15 35 44 0 60 74 21 98 -22 14 -35 16 -28 6 7 -13 -15 -14 -61
-3 -53 12 -66 10 -49 -7 12 -12 22 -31 22 -43 0 -12 -9 -7 -20 9 -13 19 -26
23 -35 10 -22 -29 -85 -30 -85 -1 0 14 -22 35 -50 47 -38 17 -50 17 -50 0 0
-13 -25 -1 -55 26 -40 35 -45 37 -20 6 38 -45 47 -78 15 -58 -11 7 -14 -1 -8
-19 7 -17 2 -31 -10 -31 -12 0 -22 7 -22 16 0 9 -30 12 -67 8 -38 -4 -78 4
-95 19 -15 15 -45 30 -66 34 -52 9 -231 145 -292 222 -27 35 -93 108 -145 162
-52 54 -95 106 -95 117 0 10 -18 40 -40 65 -22 26 -68 90 -102 142 -36 56 -77
95 -98 95 -20 0 -52 6 -72 13 -25 10 -30 7 -18 -13 11 -18 8 -21 -8 -11 -14 8
-18 32 -10 58 7 24 6 36 -3 28 -8 -8 -30 -3 -47 10 -28 22 -29 21 -7 -7z m445
-509 c0 -14 6 -41 13 -60 11 -28 7 -30 -27 -12 -27 14 -46 15 -60 1 -14 -14
-13 3 1 48 21 67 73 83 73 23z"/>
<path d="M1576 2297 c-12 -7 -3 -19 21 -26 25 -8 59 -2 83 15 44 31 -55 41
-104 11z"/>
<path d="M1323 2239 c2 -85 -21 -162 -45 -148 -10 6 -18 -8 -18 -31 0 -26 9
-37 22 -29 12 8 48 -5 79 -29 64 -47 89 -54 67 -19 -9 15 -5 18 10 8 14 -8 20
-20 14 -26 -31 -30 71 -77 161 -74 53 2 108 -6 122 -17 37 -29 52 -4 26 44
-27 50 -119 78 -140 43 -21 -33 -44 -31 -65 8 -10 17 -27 27 -37 20 -11 -6
-19 -1 -19 11 0 12 -7 18 -15 13 -9 -5 -33 3 -54 19 -21 15 -31 28 -21 28 10
0 1 13 -20 28 -33 24 -35 35 -14 81 21 45 18 59 -16 95 l-40 43 3 -68z"/>
<path d="M1031 2195 c16 -75 89 -137 89 -76 0 11 15 14 34 7 22 -9 14 11 -25
60 -76 95 -117 98 -98 9z"/>
<path d="M3320 2193 c0 -16 18 -50 40 -76 l39 -47 -21 65 c-24 71 -58 105 -58
58z"/>
<path d="M4050 2155 c3 -25 7 -49 10 -55 3 -5 7 -28 8 -50 1 -22 10 -41 20
-43 10 -2 26 -16 36 -30 12 -18 14 -10 4 23 -8 28 -14 66 -13 85 2 20 -6 31
-16 24 -11 -6 -19 12 -19 40 0 28 -8 51 -17 51 -10 0 -15 -20 -13 -45z"/>
<path d="M1207 2095 c8 -33 2 -59 -17 -75 -25 -21 -30 -18 -30 18 0 25 -13 42
-31 42 -37 0 -33 -102 4 -115 60 -19 137 134 84 167 -16 10 -19 -1 -10 -37z"/>
<path d="M3088 2112 c-13 -34 5 -72 33 -72 25 0 24 74 -1 90 -11 7 -26 -1 -32
-18z"/>
<path d="M1215 1974 c-13 -34 5 -76 27 -63 10 6 18 -3 18 -21 0 -39 98 -134
123 -118 10 6 31 -19 47 -56 21 -48 29 -55 30 -26 1 37 3 37 21 5 12 -19 41
-34 65 -33 24 1 86 -4 138 -12 94 -15 198 -2 194 25 -6 39 5 48 32 25 31 -26
40 -6 15 32 -26 38 -258 21 -290 -22 -9 -12 -15 -10 -15 6 0 15 -9 21 -20 14
-11 -7 -20 4 -20 24 -1 30 -4 31 -20 6 -16 -26 -22 -25 -45 6 -14 20 -46 37
-70 39 -26 2 -45 17 -45 34 -1 23 -5 24 -16 6 -12 -17 -24 -13 -45 18 -16 23
-40 53 -53 67 -13 14 -20 30 -14 35 5 6 -3 15 -19 21 -17 6 -34 1 -38 -12z"/>
<path d="M1805 1923 c-19 -12 -14 -26 20 -56 56 -51 104 -79 92 -55 -5 10 -21
43 -36 73 -30 59 -37 63 -76 38z"/>
<path d="M3131 1906 c-7 -18 1 -46 18 -63 27 -27 29 -24 25 33 -4 70 -23 83
-43 30z"/>
<path d="M2840 1830 c40 -42 51 -47 56 -22 4 18 21 32 39 32 51 0 21 14 -65
29 l-80 15 50 -54z"/>
<path d="M2800 1802 c0 -10 -19 -13 -43 -7 -29 8 -39 4 -29 -11 8 -14 -10 -33
-45 -49 -52 -22 -57 -30 -39 -75 12 -29 24 -40 30 -25 5 14 22 25 38 25 15 0
28 8 28 17 0 10 22 13 50 8 33 -6 54 1 62 23 16 42 53 19 39 -25 -5 -18 -1
-46 11 -63 16 -23 17 -18 7 20 -8 28 -7 43 2 35 8 -8 27 -5 41 7 28 23 128
-29 128 -68 0 -11 6 -15 12 -8 7 7 -26 60 -72 118 -78 97 -84 101 -73 46 12
-53 11 -56 -14 -25 -15 19 -32 30 -37 24 -6 -5 -22 4 -36 21 -28 33 -60 40
-60 12z"/>
<path d="M3219 1763 c36 -66 86 -118 73 -76 -7 20 -12 48 -12 62 0 15 -18 31
-40 37 -32 8 -36 4 -21 -23z"/>
<path d="M2941 1608 c1 -68 105 -168 130 -126 10 15 7 19 -8 10 -14 -8 -29 1
-37 22 -25 70 -86 137 -85 94z"/>
<path d="M2840 1603 c0 -35 45 -143 59 -143 9 0 6 36 -6 80 -19 70 -53 111
-53 63z"/>
<path d="M2490 1390 c17 -78 70 -97 70 -25 0 12 -6 15 -14 8 -8 -8 -26 6 -41
31 -26 45 -27 44 -15 -14z"/>
<path d="M4201 1407 c0 -12 12 -53 28 -90 16 -37 30 -58 31 -47 0 11 18 -18
39 -64 25 -55 68 -102 124 -138 277 -175 915 -396 887 -307 -8 23 -3 39 11 39
12 0 27 -18 33 -40 6 -22 21 -41 33 -42 13 0 37 -4 53 -7 56 -11 229 -30 393
-43 l163 -13 1 132 c1 73 -7 133 -18 133 -10 0 -19 14 -19 30 0 17 -9 30 -20
30 -11 0 -20 -9 -20 -20 0 -11 -20 -20 -45 -20 -36 1 -39 4 -15 20 22 14 23
19 4 20 -15 0 -22 8 -16 17 6 10 43 15 81 12 39 -3 71 2 71 11 0 20 -116 44
-430 91 -223 33 -1204 203 -1283 222 -23 5 -52 30 -63 54 -12 23 -22 33 -23
20z m309 -168 c7 -11 24 -19 37 -17 95 12 196 -4 187 -30 -7 -17 4 -32 27 -38
22 -6 39 -2 39 8 0 10 -10 18 -21 18 -12 0 -16 9 -9 20 7 12 23 15 34 7 12 -7
41 -16 64 -19 23 -3 132 -25 242 -49 110 -24 229 -42 265 -41 36 1 65 -5 65
-13 0 -8 34 -15 75 -14 41 1 91 -3 110 -7 56 -14 40 -47 -20 -43 -82 5 -100
-2 -55 -21 36 -15 34 -17 -14 -19 -41 -1 -52 7 -43 29 6 17 1 30 -11 30 -12 0
-22 -9 -22 -20 0 -33 -55 -22 -69 13 -9 25 -18 28 -35 11 -16 -16 -16 -30 3
-53 22 -27 18 -31 -32 -29 -31 0 -46 6 -32 11 14 6 25 27 25 46 0 44 -97 68
-139 34 -21 -17 -25 -17 -15 0 10 16 -25 28 -111 39 -69 8 -132 17 -140 19 -8
2 -50 5 -94 7 -45 1 -93 17 -113 37 -25 25 -37 28 -43 10 -11 -34 -45 -32 -45
3 0 17 -33 32 -90 41 -50 7 -86 22 -79 32 15 25 43 24 59 -2z m1179 -281 c-6
-9 10 -21 35 -27 25 -5 64 -13 86 -18 35 -7 34 -9 -6 -11 -26 -1 -41 -11 -34
-22 11 -18 -28 -29 -83 -22 -13 2 -29 -13 -35 -32 -6 -20 -7 -1 -2 43 5 43 -1
90 -12 103 -15 19 -10 22 21 14 22 -6 36 -18 30 -28z"/>
<path d="M63 1180 c-14 -33 -35 -55 -45 -49 -11 7 -18 -216 -18 -550 0 -308 2
-561 5 -562 126 -26 175 -20 175 19 0 46 -37 48 -72 4 -33 -42 -53 38 -60 238
-24 793 -27 724 25 800 45 66 64 160 32 160 -8 0 -27 -27 -42 -60z"/>
<path d="M1462 1210 c18 -18 49 -36 70 -40 21 -4 38 -9 38 -11 0 -2 25 -6 55
-8 111 -6 3 56 -140 81 -51 9 -52 8 -23 -22z"/>
<path d="M3377 1222 c37 -23 -11 -40 -88 -31 -33 4 -44 3 -27 -3 18 -5 41 -28
51 -50 17 -39 21 -38 85 23 57 55 73 61 113 42 26 -12 52 -14 58 -5 18 30 -15
42 -117 42 -64 0 -92 -7 -75 -18z"/>
<path d="M4198 1118 c-2 -15 0 -37 3 -48 3 -11 6 -42 7 -68 1 -27 12 -52 25
-56 16 -6 17 19 5 86 -19 98 -36 136 -40 86z"/>
<path d="M1621 1088 c0 -40 43 -108 68 -108 8 0 32 -20 54 -45 l39 -45 -11 50
c-11 49 -11 49 12 5 13 -25 31 -45 40 -45 28 0 19 -110 -12 -151 -23 -30 -30
-32 -31 -9 -1 23 -6 22 -22 -6 -19 -33 -23 -32 -56 9 -41 50 -90 33 -71 -25 6
-21 4 -38 -5 -38 -36 0 -65 -102 -33 -114 23 -9 24 -15 5 -27 -13 -9 -25 -43
-25 -77 0 -34 -9 -62 -21 -63 -12 0 -6 -12 13 -27 53 -40 2 -72 -101 -62 -47
4 -89 -2 -97 -14 -7 -13 -4 -16 8 -9 31 19 85 -6 85 -39 0 -15 16 -28 35 -28
27 1 29 5 8 18 -21 13 -20 19 7 29 47 18 47 18 36 -27 -7 -28 -27 -40 -66 -40
-73 0 -98 -72 -29 -85 33 -6 42 -1 35 19 -9 22 2 25 46 14 109 -26 87 -57 -41
-58 -48 0 -82 -8 -76 -18 6 -9 -2 -13 -17 -7 -15 5 -26 20 -23 33 3 12 -8 22
-25 22 -16 0 -30 -9 -30 -20 0 -11 9 -20 20 -20 31 0 24 -40 -10 -53 -48 -18
-99 9 -73 39 15 19 12 25 -15 25 -26 0 -33 -12 -26 -45 11 -56 117 -64 228
-17 101 42 276 62 276 32 0 -43 87 1 165 85 85 90 86 118 1 59 -66 -46 -123
-40 -83 9 47 57 35 90 -14 37 -26 -28 -59 -51 -73 -51 -14 0 -48 -6 -74 -13
-34 -9 -44 -6 -34 10 8 13 40 23 71 23 38 0 67 16 90 51 33 50 32 50 -23 39
l-56 -12 45 34 c51 37 61 78 15 61 -16 -7 -30 -4 -30 6 0 9 28 27 62 39 33 11
55 30 48 41 -7 12 -4 21 5 21 34 0 104 209 102 305 -1 52 -9 95 -17 95 -9 0
-14 15 -13 34 2 23 -21 41 -69 55 -40 11 -87 33 -105 48 -18 16 -33 21 -33 12
0 -8 -18 6 -40 31 -36 42 -40 43 -39 8z m153 -506 c-9 -55 -35 -82 -78 -82
-41 0 -41 1 -6 40 20 22 30 40 22 40 -8 0 -10 8 -4 17 18 29 71 17 66 -15z"/>
<path d="M3960 1079 c12 -22 17 -58 10 -80 -7 -22 -3 -39 9 -39 13 0 20 32 16
80 -3 49 -15 80 -31 80 -19 0 -20 -10 -4 -41z"/>
<path d="M4380 1022 c0 -12 16 -38 36 -58 20 -20 34 -45 31 -55 -3 -11 41 -40
98 -65 101 -44 103 -44 59 -4 -25 23 -40 50 -35 59 6 9 -12 31 -39 49 -28 18
-72 47 -100 64 -31 20 -50 24 -50 10z"/>
<path d="M2039 921 c12 -21 39 -44 61 -51 22 -7 45 -34 52 -60 6 -26 29 -63
50 -82 21 -19 38 -47 38 -62 0 -16 10 -22 22 -15 28 18 6 -91 -34 -167 -15
-30 -28 -69 -28 -88 0 -18 -9 -39 -21 -46 -13 -8 -17 5 -12 35 8 42 2 48 -41
44 -63 -7 -83 -26 -49 -47 34 -21 34 -43 0 -64 -37 -23 -8 -44 40 -29 87 28
143 92 143 164 0 38 8 64 18 58 27 -16 69 103 50 144 -16 37 -22 58 -26 101
-1 15 -12 20 -25 12 -16 -10 -20 -4 -11 20 8 20 6 29 -6 22 -11 -7 -20 -3 -20
9 0 11 -32 34 -70 50 -39 16 -76 43 -82 60 -7 17 -25 31 -41 31 -22 0 -24 -9
-8 -39z"/>
<path d="M4281 867 c14 -37 14 -60 0 -74 -12 -12 -21 -37 -21 -57 0 -41 -32
-49 -47 -11 -5 14 -11 3 -11 -23 -1 -27 4 -43 11 -36 7 8 25 4 40 -8 20 -17
29 -16 35 5 5 15 13 41 19 57 5 18 15 4 23 -34 18 -80 70 -106 70 -35 0 27 -8
49 -19 49 -10 0 -24 20 -31 45 -18 62 -70 175 -80 175 -5 0 0 -24 11 -53z"/>
<path d="M4620 860 c28 -22 62 -39 76 -40 14 0 53 -14 85 -31 36 -18 59 -22
59 -9 0 12 -16 26 -35 33 -19 6 -73 28 -120 49 -108 48 -128 48 -65 -2z"/>
<path d="M4343 836 c12 -30 32 -49 43 -42 12 7 16 -3 10 -26 -5 -22 2 -51 17
-64 22 -21 27 -19 29 10 1 20 10 9 20 -24 16 -52 11 -66 -32 -104 -62 -54 -63
-66 -5 -64 25 0 34 6 20 11 -14 6 -20 19 -14 29 6 10 38 4 72 -14 47 -24 59
-25 52 -5 -6 15 -20 25 -32 22 -30 -7 -30 69 0 79 12 4 -28 61 -90 127 -82 86
-107 104 -90 65z"/>
<path d="M4520 763 c0 -9 79 -51 175 -92 96 -41 247 -107 335 -146 325 -143
577 -215 638 -181 19 11 32 11 32 -1 0 -10 34 -24 75 -30 41 -6 109 -17 150
-24 74 -13 118 40 50 59 -22 6 -376 63 -515 82 -54 8 -485 165 -624 228 -267
120 -316 137 -316 105z"/>
<path d="M4900 759 c0 -11 7 -20 15 -21 23 -2 69 -14 140 -35 36 -11 65 -13
65 -4 0 9 -20 21 -45 27 -25 5 -74 19 -110 31 -39 12 -65 13 -65 2z"/>
<path d="M3987 680 c0 -50 8 -60 46 -60 52 0 63 35 17 53 -16 6 -30 24 -30 39
0 15 -7 28 -17 28 -9 0 -16 -27 -16 -60z"/>
<path d="M2364 669 c14 -18 43 -51 64 -74 21 -23 40 -67 43 -99 6 -83 105
-150 139 -96 7 12 22 15 34 8 11 -7 27 -3 35 10 10 16 25 10 51 -18 22 -25 27
-40 12 -40 -16 0 -10 -21 16 -57 22 -32 35 -63 28 -70 -7 -8 4 -27 25 -43 48
-36 81 -39 53 -4 -54 64 -67 138 -22 123 29 -9 39 -6 29 9 -7 12 -4 22 7 22
31 0 45 -36 17 -46 -62 -22 10 -34 84 -14 92 24 100 66 16 76 -38 5 -52 17
-49 46 1 24 13 35 30 28 15 -5 49 -16 76 -22 26 -7 49 -27 50 -45 1 -21 5 -24
11 -8 6 14 30 26 54 27 31 1 25 7 -22 20 -70 21 -94 82 -25 64 31 -8 38 -3 28
22 -9 23 -1 32 28 32 46 0 50 -63 5 -82 -20 -8 -11 -15 26 -22 44 -9 53 -5 43
20 -13 36 22 63 85 64 25 0 45 10 45 22 0 13 18 18 40 12 23 -6 55 4 73 22 45
44 4 54 -77 18 -120 -54 -170 -63 -160 -30 3 10 -11 14 -30 9 -20 -6 -70 -17
-111 -24 -69 -12 -126 -49 -76 -49 11 0 21 -9 21 -20 0 -11 -13 -20 -30 -20
-16 0 -30 8 -30 18 0 10 -27 28 -60 39 -33 12 -58 33 -55 47 3 17 -18 26 -65
26 -49 0 -68 -8 -64 -27 3 -18 -6 -24 -25 -16 -16 6 -35 2 -42 -9 -8 -13 -29
-7 -54 16 -29 25 -43 29 -49 12 -13 -37 -156 53 -156 98 0 19 -50 55 -76 56
-8 0 -4 -14 10 -31z"/>
<path d="M5172 671 c11 -27 4 -29 -41 -11 -29 11 -73 19 -97 18 -24 0 21 -23
101 -50 79 -27 174 -65 210 -85 42 -23 96 -34 154 -30 59 4 100 -4 123 -25 26
-24 36 -25 42 -5 7 20 22 18 63 -9 34 -22 71 -31 96 -23 32 10 38 7 26 -14
-14 -22 -11 -23 16 -1 27 22 41 21 84 -7 l51 -34 0 73 c0 69 -3 72 -70 72 -38
0 -70 8 -70 18 0 10 34 13 75 8 50 -7 68 -3 55 10 -11 12 -83 26 -160 33 -77
6 -185 16 -240 22 -63 6 -89 3 -70 -8 17 -10 92 -23 168 -30 129 -11 170 -23
150 -40 -8 -8 -214 15 -368 40 -44 7 -96 12 -115 11 -19 -1 -35 12 -35 28 0
17 9 25 20 18 11 -7 20 -3 20 9 0 11 -13 21 -30 21 -16 0 -30 -14 -30 -32 0
-21 -11 -28 -32 -20 -17 7 -40 12 -50 12 -10 0 -18 9 -18 21 0 13 14 13 42 -2
34 -18 41 -17 34 4 -5 15 -33 30 -62 33 -42 5 -51 0 -42 -25z"/>
<path d="M4300 602 c0 -9 -20 -23 -44 -29 -61 -16 -30 -40 67 -51 7 -1 16 -29
21 -63 10 -64 -14 -56 -30 11 -8 35 -10 33 -12 -7 -2 -42 -6 -45 -35 -20 -30
24 -32 21 -23 -29 8 -43 4 -54 -18 -45 -15 6 -23 2 -17 -8 7 -10 3 -24 -9 -31
-11 -7 -20 2 -20 19 0 17 -8 31 -18 31 -10 0 -14 18 -8 40 6 22 24 40 40 40
19 0 26 12 18 32 -7 17 -13 37 -13 45 -1 7 -10 -5 -19 -27 -17 -39 -17 -38
-19 4 -2 66 -37 75 -47 11 -7 -52 -8 -51 -11 10 -3 65 -28 85 -54 43 -8 -12
-3 -29 11 -38 27 -17 11 -60 -22 -60 -11 0 -15 9 -8 20 13 21 -27 110 -43 94
-23 -24 19 -154 48 -149 17 3 35 -6 40 -20 4 -14 -6 -25 -23 -25 -18 0 -32 -5
-32 -11 0 -13 59 -76 61 -65 1 3 6 28 11 56 14 74 43 91 32 18 -6 -41 -2 -59
11 -51 13 8 17 -2 11 -28 -7 -24 4 -57 26 -81 20 -23 28 -39 17 -37 -40 8 -58
-2 -33 -18 21 -13 20 -22 -5 -42 -27 -22 -31 -18 -31 32 -1 70 -29 121 -49 89
-7 -12 -3 -22 10 -22 17 0 16 -10 -4 -34 -18 -23 -19 -29 -2 -19 24 15 26 9
33 -117 1 -22 11 -42 22 -44 11 -2 18 15 15 37 -4 32 3 37 36 27 22 -7 54 -2
70 11 34 28 39 79 7 79 -12 0 -17 -13 -11 -29 14 -37 -19 -60 -39 -28 -8 13 3
38 26 56 22 18 45 46 51 62 7 16 13 1 13 -33 3 -90 43 -198 63 -166 13 21 22
20 47 -1 18 -14 32 -19 32 -11 0 8 14 4 30 -10 22 -19 30 -19 30 -1 0 13 8 18
19 12 10 -6 24 -2 31 9 7 11 -2 26 -19 32 -17 7 -31 32 -31 55 -1 35 -4 38
-20 13 -11 -16 -20 -21 -22 -10 -1 11 -9 -2 -18 -30 l-16 -50 -3 50 c-3 55
-57 186 -59 145 -1 -14 -12 -25 -24 -25 -14 0 -18 19 -10 48 12 51 -59 54 -92
4 -8 -11 -19 -15 -26 -9 -7 7 9 34 34 60 49 50 156 76 156 37 0 -12 9 -17 20
-10 29 18 24 50 -7 50 -16 0 -33 26 -40 58 -6 31 -23 70 -39 85 -15 15 -23 39
-19 52 5 14 3 25 -3 25 -7 0 -12 -8 -12 -18z m100 -471 c0 -53 -54 -75 -67
-27 -6 25 -1 51 12 59 29 18 55 3 55 -32z"/>
<path d="M4622 575 c13 -25 51 -80 84 -122 48 -61 62 -101 69 -196 13 -194 49
-257 147 -257 l81 0 -6 75 c-8 89 31 108 98 46 24 -23 57 -41 74 -41 17 0 42
-18 56 -40 29 -47 435 -63 435 -18 0 16 9 15 30 -2 24 -20 33 -15 49 28 25 66
46 68 29 3 -12 -48 -9 -49 110 -48 l122 0 0 67 c0 64 -3 67 -70 60 -38 -3 -70
1 -70 9 0 8 -25 15 -55 15 -91 0 -408 79 -425 106 -9 14 -26 19 -38 11 -38
-23 -24 -46 43 -70 45 -15 57 -27 39 -38 -14 -9 -20 -33 -13 -55 8 -22 6 -29
-4 -16 -9 12 -37 33 -62 46 -25 13 -45 36 -45 52 0 35 -86 130 -118 130 -12 0
-96 37 -185 81 -89 45 -173 77 -187 72 -14 -6 -30 7 -36 27 -9 35 -122 120
-160 120 -8 0 -5 -20 8 -45z"/>
<path d="M3335 463 c-51 -31 -69 -74 -24 -59 10 3 17 11 15 17 -2 7 21 8 51 4
44 -7 54 -1 54 33 0 49 -21 50 -96 5z"/>
<path d="M3790 480 c7 -11 1 -20 -14 -20 -19 -1 -18 -5 3 -19 42 -26 13 -48
-64 -48 -36 0 -53 -4 -39 -8 20 -7 20 -15 2 -37 -18 -23 -15 -28 20 -28 23 0
40 11 37 25 -7 35 89 44 114 10 11 -16 35 -34 51 -40 24 -10 23 -12 -5 -13
-51 -3 -43 -58 10 -68 39 -7 37 -9 -10 -11 -30 -2 -55 -11 -55 -21 0 -9 -20
-23 -45 -31 -44 -13 -44 -14 11 -34 44 -17 51 -27 33 -48 -30 -36 12 -79 81
-84 48 -3 48 -2 11 26 -21 16 -48 29 -59 29 -11 0 -9 11 5 25 20 20 28 19 43
-5 51 -83 79 185 29 289 -20 42 -36 86 -36 98 0 13 -30 25 -68 28 -41 3 -63
-3 -55 -15z"/>
<path d="M2258 373 c-23 -30 -27 -57 -16 -89 l17 -45 41 41 c23 23 50 36 59
30 29 -18 45 27 23 65 -15 25 -21 27 -21 7 -1 -23 -7 -22 -36 3 -32 29 -38 28
-67 -12z"/>
<path d="M3371 381 c-7 -12 -31 -21 -52 -21 -43 0 -53 -31 -14 -46 14 -6 7
-10 -15 -10 -22 0 -71 -6 -108 -15 -47 -10 -64 -8 -55 6 8 13 -2 17 -27 11
-57 -15 -105 -106 -56 -106 11 0 15 13 10 28 -7 17 4 32 27 38 36 9 49 -8 41
-53 -2 -9 22 2 53 24 31 22 70 39 86 38 82 -4 128 6 101 23 -43 28 -6 64 52
49 39 -9 49 -6 42 15 -12 35 -68 47 -85 19z"/>
<path d="M3516 315 c-4 -34 -18 -44 -56 -41 -29 2 -35 -1 -15 -7 19 -5 35 -18
35 -28 0 -27 47 -24 76 5 17 17 17 30 1 50 -17 20 -12 26 21 26 58 0 53 30 -7
35 -36 3 -50 -7 -55 -40z"/>
<path d="M4513 327 c-33 -34 -4 -176 32 -154 14 8 17 1 10 -18 -7 -18 4 -46
27 -67 40 -36 40 -35 35 57 -3 66 -11 88 -26 76 -38 -32 -75 8 -60 66 13 53 8
65 -18 40z"/>
<path d="M3265 226 c-36 -5 -65 -18 -65 -29 0 -12 14 -16 32 -9 17 7 53 12 80
12 26 0 48 9 48 20 0 11 -7 19 -15 17 -8 -2 -44 -7 -80 -11z"/>
<path d="M2340 170 c0 -35 -8 -48 -23 -38 -16 10 -20 3 -10 -20 7 -20 13 -52
13 -72 0 -28 14 -37 57 -36 l57 2 -35 71 c-19 39 -30 82 -25 95 5 13 -1 30
-13 37 -13 8 -21 -7 -21 -39z"/>
<path d="M2628 134 c1 -49 8 -81 14 -70 7 10 17 1 23 -22 9 -35 26 -42 98 -41
67 1 78 6 47 19 -33 14 -34 17 -6 19 18 0 39 -8 46 -19 18 -28 50 -25 50 6 0
31 -52 76 -126 109 -30 13 -60 38 -67 55 -6 16 -20 30 -30 30 -10 0 -9 -20 4
-45 21 -43 20 -43 -17 3 l-38 47 2 -91z"/>
<path d="M2900 180 c0 -20 23 -26 80 -23 20 1 22 -2 5 -9 -50 -22 -23 -42 50
-38 106 6 106 8 -5 51 -114 44 -130 47 -130 19z"/>
<path d="M3545 186 c-25 -5 -45 -17 -45 -27 0 -9 -37 -27 -81 -39 -113 -31
-74 -86 50 -73 52 6 96 -1 120 -19 52 -37 78 -35 63 5 -10 24 -6 28 13 13 46
-37 163 -51 128 -16 -17 17 -48 30 -70 30 -23 0 -46 9 -53 20 -7 12 -21 15
-31 9 -11 -6 -19 -1 -19 12 0 15 -18 19 -50 11 -31 -8 -50 -4 -50 9 0 13 18
27 40 33 22 6 40 19 40 28 0 10 -2 17 -5 15 -3 -1 -25 -6 -50 -11z"/>
<path d="M2231 101 c-22 -32 -46 -54 -53 -50 -7 5 -24 -4 -37 -20 -19 -23 -8
-28 68 -28 96 0 112 27 74 122 -11 29 -19 26 -52 -24z"/>
<path d="M1977 37 l-47 -36 72 -1 c45 0 84 14 105 37 47 52 -63 52 -130 0z"/>
</g>
</svg>
